<svg width="16" height="16" viewBox="0 0 16 16" fill="none" xmlns="http://www.w3.org/2000/svg">
<path d="M14.0003 9.33333L12.0003 7.33333H7.33366C7.15685 7.33333 6.98728 7.26309 6.86225 7.13807C6.73723 7.01305 6.66699 6.84348 6.66699 6.66667V2.66667C6.66699 2.48986 6.73723 2.32029 6.86225 2.19526C6.98728 2.07024 7.15685 2 7.33366 2H13.3337C13.5105 2 13.68 2.07024 13.8051 2.19526C13.9301 2.32029 14.0003 2.48986 14.0003 2.66667V9.33333Z" stroke="#8C8C8C" stroke-width="1.5" stroke-linecap="round" stroke-linejoin="round"/>
<path d="M9.33333 10.0003V11.3337C9.33333 11.5105 9.26309 11.68 9.13807 11.8051C9.01305 11.9301 8.84348 12.0003 8.66667 12.0003H4L2 14.0003V7.33366C2 7.15685 2.07024 6.98728 2.19526 6.86225C2.32029 6.73723 2.48986 6.66699 2.66667 6.66699H4" stroke="#8C8C8C" stroke-width="1.5" stroke-linecap="round" stroke-linejoin="round"/>
</svg>
