<svg width="16" height="16" viewBox="0 0 16 16" fill="none" xmlns="http://www.w3.org/2000/svg">
<g clip-path="url(#clip0)">
<path d="M11.3335 9.99984L11.3335 11.9998C11.3335 12.4376 11.2473 12.871 11.0798 13.2754C10.9122 13.6799 10.6667 14.0473 10.3572 14.3569C10.0477 14.6664 9.68019 14.9119 9.27577 15.0794C8.87135 15.247 8.4379 15.3332 8.00016 15.3332C7.56242 15.3332 7.12897 15.247 6.72455 15.0794C6.32013 14.9119 5.95267 14.6664 5.64314 14.3569C5.33361 14.0473 5.08808 13.6799 4.92056 13.2754C4.75305 12.871 4.66683 12.4376 4.66683 11.9998L4.66683 9.99984M4.66683 5.99984L4.66683 3.99984C4.66683 3.5621 4.75305 3.12864 4.92056 2.72423C5.08808 2.31981 5.33361 1.95234 5.64314 1.64281C6.26826 1.01769 7.11611 0.666504 8.00016 0.666504C8.88422 0.666504 9.73206 1.01769 10.3572 1.64281C10.9823 2.26794 11.3335 3.11578 11.3335 3.99984L11.3335 5.99984" stroke="#8C8C8C" stroke-width="1.5" stroke-linecap="round" stroke-linejoin="round"/>
<path d="M8 5.3335L8 10.6668" stroke="#8C8C8C" stroke-width="1.5" stroke-linecap="round" stroke-linejoin="round"/>
</g>
<defs>
<clipPath id="clip0">
<rect width="16" height="16" fill="white" transform="translate(16) rotate(90)"/>
</clipPath>
</defs>
</svg>
