<svg width="16" height="16" viewBox="0 0 16 16" fill="none" xmlns="http://www.w3.org/2000/svg">
<path d="M7.99967 10.6663C9.47243 10.6663 10.6663 9.47243 10.6663 7.99967C10.6663 6.52691 9.47243 5.33301 7.99967 5.33301C6.52691 5.33301 5.33301 6.52691 5.33301 7.99967C5.33301 9.47243 6.52691 10.6663 7.99967 10.6663Z" stroke="#8C8C8C" stroke-width="1.5" stroke-linecap="round" stroke-linejoin="round"/>
<path d="M10.6667 8.00039V9.00039C10.6667 9.44241 10.8423 9.86634 11.1548 10.1789C11.4674 10.4915 11.8913 10.6671 12.3333 10.6671C12.7754 10.6671 13.1993 10.4915 13.5118 10.1789C13.8244 9.86634 14 9.44241 14 9.00039V8.00039C14.0017 6.71112 13.588 5.45561 12.8203 4.41985C12.0525 3.38408 10.9716 2.62315 9.73759 2.24979C8.50357 1.87642 7.18211 1.91047 5.96896 2.34689C4.7558 2.78332 3.7155 3.59891 3.00214 4.67284C2.28878 5.74677 1.94031 7.02191 2.00837 8.30938C2.07642 9.59685 2.55737 10.8282 3.37997 11.8209C4.20257 12.8136 5.32306 13.515 6.57546 13.8211C7.82786 14.1272 9.14555 14.0218 10.3333 13.5204" stroke="#8C8C8C" stroke-width="1.5" stroke-linecap="round" stroke-linejoin="round"/>
</svg>
