<svg width="16" height="16" viewBox="0 0 16 16" fill="none" xmlns="http://www.w3.org/2000/svg">
<path d="M4.15967 3.85809H11.8397" stroke="#A60D02" stroke-width="1.5" stroke-linecap="round" stroke-linejoin="round"/>
<path fill-rule="evenodd" clip-rule="evenodd" d="M12.6148 5.77783H3.38471C2.75239 5.77783 2.23975 6.29047 2.23975 6.92279V6.92279C2.23975 7.30231 2.42791 7.65751 2.74215 7.87063L6.55463 10.4543C7.42759 11.0457 8.57255 11.0457 9.44551 10.4543L13.2567 7.87127C13.5716 7.65815 13.7597 7.30295 13.7597 6.92343V6.92279C13.7597 6.29047 13.2471 5.77783 12.6148 5.77783V5.77783Z" stroke="#A60D02" stroke-width="1.5" stroke-linecap="round" stroke-linejoin="round"/>
<path d="M5.74039 9.9585L2.61719 13.0817" stroke="#A60D02" stroke-width="1.5" stroke-linecap="round" stroke-linejoin="round"/>
<path d="M10.2588 9.9585L13.382 13.0817" stroke="#A60D02" stroke-width="1.5" stroke-linecap="round" stroke-linejoin="round"/>
<path d="M2.23975 6.93311V12.1779C2.23975 12.8851 2.81255 13.4579 3.51975 13.4579H12.4797C13.1869 13.4579 13.7597 12.8851 13.7597 12.1779V6.93311" stroke="#A60D02" stroke-width="1.5" stroke-linecap="round" stroke-linejoin="round"/>
<path d="M5.43994 1.93816H10.5599" stroke="#A60D02" stroke-width="1.5" stroke-linecap="round" stroke-linejoin="round"/>
</svg>
