<svg width="18" height="18" viewBox="0 0 18 18" fill="none" xmlns="http://www.w3.org/2000/svg">
<path d="M0.149597 13.6875C0.149597 14.1017 0.485384 14.4375 0.899597 14.4375C1.31381 14.4375 1.6496 14.1017 1.6496 13.6875H0.149597ZM8.83472 9.08995C9.21066 9.26385 9.6564 9.10006 9.8303 8.72412C10.0042 8.34818 9.84041 7.90245 9.46447 7.72855L8.83472 9.08995ZM1.6496 13.6875C1.6496 10.8916 3.91616 8.62501 6.7121 8.62501V7.12501C3.08773 7.12501 0.149597 10.0631 0.149597 13.6875H1.6496ZM6.7121 8.62501C7.4716 8.62501 8.1901 8.79176 8.83472 9.08995L9.46447 7.72855C8.62649 7.34092 7.69348 7.12501 6.7121 7.12501V8.62501Z" fill="#EA2D1F"/>
<circle cx="6.74961" cy="4.05001" r="3.15" stroke="#EA2D1F" stroke-width="1.5" stroke-linecap="square"/>
<rect x="9" y="10.8" width="8.1" height="6.3" rx="0.9" stroke="#505053" stroke-width="1.08" stroke-linecap="square"/>
<path d="M9.77947 11.2721C9.54317 11.0902 9.20411 11.1342 9.02216 11.3705C8.84021 11.6068 8.88426 11.9459 9.12055 12.1278L9.77947 11.2721ZM16.9687 12.1359C17.2094 11.9599 17.262 11.6221 17.086 11.3813C16.91 11.1406 16.5721 11.0881 16.3313 11.2641L16.9687 12.1359ZM9.12055 12.1278L11.5568 14.0038L12.2158 13.1481L9.77947 11.2721L9.12055 12.1278ZM14.3654 14.0389L16.9687 12.1359L16.3313 11.2641L13.7281 13.167L14.3654 14.0389ZM11.5568 14.0038C12.3811 14.6386 13.5255 14.6529 14.3654 14.0389L13.7281 13.167C13.2758 13.4976 12.6596 13.4899 12.2158 13.1481L11.5568 14.0038Z" fill="#505053"/>
</svg>
