<svg width="18" height="18" viewBox="0 0 18 18" fill="none" xmlns="http://www.w3.org/2000/svg">
<path d="M14.7374 6.78L11.1074 6.465L9.68993 3.1275C9.43493 2.52 8.56493 2.52 8.30993 3.1275L6.89243 6.4725L3.26993 6.78C2.60993 6.8325 2.33993 7.6575 2.84243 8.0925L5.59493 10.4775L4.76993 14.0175C4.61993 14.6625 5.31743 15.1725 5.88743 14.8275L8.99993 12.9525L12.1124 14.835C12.6824 15.18 13.3799 14.67 13.2299 14.025L12.4049 10.4775L15.1574 8.0925C15.6599 7.6575 15.3974 6.8325 14.7374 6.78ZM8.99993 11.55L6.17993 13.2525L6.92993 10.0425L4.43993 7.8825L7.72493 7.5975L8.99993 4.575L10.2824 7.605L13.5674 7.89L11.0774 10.05L11.8274 13.26L8.99993 11.55Z" fill="#505053"/>
</svg>
