<svg width="18" height="18" viewBox="0 0 18 18" fill="none" xmlns="http://www.w3.org/2000/svg">
<path d="M0.199316 12.1667C0.199316 12.498 0.467946 12.7667 0.799316 12.7667C1.13069 12.7667 1.39932 12.498 1.39932 12.1667H0.199316ZM7.88075 8.01943C8.1815 8.15855 8.53809 8.02752 8.67721 7.72677C8.81633 7.42602 8.6853 7.06943 8.38455 6.93031L7.88075 8.01943ZM1.39932 12.1667C1.39932 9.64456 3.44388 7.59999 5.96598 7.59999V6.39999C2.78114 6.39999 0.199316 8.98182 0.199316 12.1667H1.39932ZM5.96598 7.59999C6.65096 7.59999 7.29916 7.75041 7.88075 8.01943L8.38455 6.93031C7.64827 6.58973 6.82846 6.39999 5.96598 6.39999V7.59999Z" fill="#505053"/>
<circle cx="6.00007" cy="3.6" r="2.8" stroke="#505053" stroke-width="1.2" stroke-linecap="square"/>
<rect x="8" y="9.6" width="7.2" height="5.6" rx="0.8" stroke="#505053" stroke-width="1.2" stroke-linecap="square"/>
<path d="M8.76682 9.92462C8.50427 9.72245 8.12754 9.77139 7.92537 10.0339C7.72319 10.2965 7.77214 10.6732 8.03469 10.8754L8.76682 9.92462ZM15.1548 10.8844C15.4224 10.6888 15.4807 10.3134 15.2851 10.0459C15.0896 9.77841 14.7142 9.72007 14.4467 9.91563L15.1548 10.8844ZM12.4867 12.0915L12.1326 11.6072L12.4867 12.0915ZM8.03469 10.8754L10.2003 12.543L10.9324 11.5922L8.76682 9.92462L8.03469 10.8754ZM12.8408 12.5759L15.1548 10.8844L14.4467 9.91563L12.1326 11.6072L12.8408 12.5759ZM10.2003 12.543C10.9753 13.1397 12.0512 13.1531 12.8408 12.5759L12.1326 11.6072C11.7737 11.8695 11.2847 11.8634 10.9324 11.5922L10.2003 12.543Z" fill="#505053"/>
</svg>
