<svg width="18" height="18" viewBox="0 0 18 18" fill="none" xmlns="http://www.w3.org/2000/svg">
<path d="M14.4444 2H3.55556C2.7 2 2 2.7 2 3.55556V14.4444C2 15.3 2.69222 16 3.55556 16H14.4444C15.3 16 16 15.3 16 14.4444V3.55556C16 2.7 15.3 2 14.4444 2ZM14.4444 14.4444H3.55556V12.1111H6.32444C6.86111 13.0367 7.85667 13.6667 9.00778 13.6667C10.1589 13.6667 11.1467 13.0367 11.6911 12.1111H14.4444V14.4444ZM14.4444 10.5556H10.5633C10.5633 11.4111 9.86333 12.1111 9.00778 12.1111C8.15222 12.1111 7.45222 11.4111 7.45222 10.5556H3.55556V3.55556H14.4444V10.5556Z" fill="#505053"/>
</svg>
