<svg width="20" height="20" viewBox="0 0 20 20" fill="none" xmlns="http://www.w3.org/2000/svg">
<path d="M10.8333 12.5H4.16667C3.24583 12.5 2.5 11.7542 2.5 10.8333V4.16667C2.5 3.24583 3.24583 2.5 4.16667 2.5H13.3333C14.2542 2.5 15 3.24583 15 4.16667V7.5" stroke="#8C8C8C" stroke-width="1.5" stroke-linecap="round" stroke-linejoin="round"/>
<path d="M9.58301 13.75L10.833 12.5L9.58301 11.25" stroke="#8C8C8C" stroke-width="1.5" stroke-linecap="round" stroke-linejoin="round"/>
<path d="M5.83301 10V9.16667C5.83301 8.24583 6.57884 7.5 7.49967 7.5H14.9997H15.833C16.7538 7.5 17.4997 8.24583 17.4997 9.16667V15.8333C17.4997 16.7542 16.7538 17.5 15.833 17.5H7.49967C6.57884 17.5 5.83301 16.7542 5.83301 15.8333V15.8333V15" stroke="#8C8C8C" stroke-width="1.5" stroke-linecap="round" stroke-linejoin="round"/>
</svg>
