<svg width="18" height="18" viewBox="0 0 18 18" fill="none" xmlns="http://www.w3.org/2000/svg">
<path d="M13.3351 9.00001C13.3351 9.18418 13.1858 9.33348 13.0017 9.33348C12.8175 9.33348 12.6682 9.18418 12.6682 9.00001C12.6682 8.81584 12.8175 8.66653 13.0017 8.66653C13.1858 8.66653 13.3351 8.81584 13.3351 9.00001" stroke="#1F70EA" stroke-width="1.5" stroke-linecap="round" stroke-linejoin="round"/>
<path d="M9.33348 9.00001C9.33348 9.18418 9.18418 9.33348 9.00001 9.33348C8.81584 9.33348 8.66653 9.18418 8.66653 9.00001C8.66653 8.81584 8.81584 8.66653 9.00001 8.66653C9.18418 8.66653 9.33348 8.81584 9.33348 9.00001" stroke="#1F70EA" stroke-width="1.5" stroke-linecap="round" stroke-linejoin="round"/>
<path d="M5.33182 9.00001C5.33182 9.18418 5.18252 9.33348 4.99834 9.33348C4.81417 9.33348 4.66487 9.18418 4.66487 9.00001C4.66487 8.81584 4.81417 8.66653 4.99834 8.66653C5.18252 8.66653 5.33182 8.81584 5.33182 9.00001" stroke="#1F70EA" stroke-width="1.5" stroke-linecap="round" stroke-linejoin="round"/>
</svg>
