<svg width="12" height="13" viewBox="0 0 12 13" fill="none" xmlns="http://www.w3.org/2000/svg">
<path d="M3.12012 3.3943H8.88012" stroke="#A60D02" stroke-width="0.5" stroke-linecap="round" stroke-linejoin="round"/>
<path fill-rule="evenodd" clip-rule="evenodd" d="M9.46194 4.83398H2.53938C2.06514 4.83398 1.68066 5.21846 1.68066 5.6927V5.6927C1.68066 5.97734 1.82178 6.24374 2.05746 6.40358L4.91682 8.34134C5.57154 8.78486 6.43026 8.78486 7.08498 8.34134L9.94338 6.40406C10.1795 6.24422 10.3207 5.97782 10.3207 5.69318V5.6927C10.3207 5.21846 9.93618 4.83398 9.46194 4.83398V4.83398Z" stroke="#A60D02" stroke-width="0.5" stroke-linecap="round" stroke-linejoin="round"/>
<path d="M4.30627 7.96875L1.96387 10.3112" stroke="#A60D02" stroke-width="0.5" stroke-linecap="round" stroke-linejoin="round"/>
<path d="M7.69434 7.96875L10.0367 10.3112" stroke="#A60D02" stroke-width="0.5" stroke-linecap="round" stroke-linejoin="round"/>
<path d="M1.68066 5.69922V9.63282C1.68066 10.1632 2.11026 10.5928 2.64066 10.5928H9.36066C9.89106 10.5928 10.3207 10.1632 10.3207 9.63282V5.69922" stroke="#A60D02" stroke-width="0.5" stroke-linecap="round" stroke-linejoin="round"/>
<path d="M4.08008 1.95289H7.92008" stroke="#A60D02" stroke-width="0.5" stroke-linecap="round" stroke-linejoin="round"/>
</svg>
