<svg width="16" height="17" viewBox="0 0 16 17" fill="none" xmlns="http://www.w3.org/2000/svg">
<path fill-rule="evenodd" clip-rule="evenodd" d="M7.99961 2.10156C7.78744 2.10156 7.58395 2.18585 7.43392 2.33588C7.28389 2.48591 7.19961 2.68939 7.19961 2.90156V3.70156C7.19961 3.91374 7.28389 4.11722 7.43392 4.26725C7.58395 4.41728 7.78744 4.50156 7.99961 4.50156C8.21178 4.50156 8.41527 4.41728 8.56529 4.26725C8.71532 4.11722 8.79961 3.91374 8.79961 3.70156V2.90156C8.79961 2.68939 8.71532 2.48591 8.56529 2.33588C8.41527 2.18585 8.21178 2.10156 7.99961 2.10156ZM3.19961 3.70156H5.59961C5.59961 4.33808 5.85247 4.94853 6.30255 5.39862C6.75264 5.84871 7.36309 6.10156 7.99961 6.10156C8.63613 6.10156 9.24658 5.84871 9.69667 5.39862C10.1468 4.94853 10.3996 4.33808 10.3996 3.70156H12.7996C13.224 3.70156 13.6309 3.87013 13.931 4.17019C14.231 4.47025 14.3996 4.87722 14.3996 5.30156V12.5016C14.3996 12.9259 14.231 13.3329 13.931 13.6329C13.6309 13.933 13.224 14.1016 12.7996 14.1016H3.19961C2.77526 14.1016 2.3683 13.933 2.06824 13.6329C1.76818 13.3329 1.59961 12.9259 1.59961 12.5016V5.30156C1.59961 4.87722 1.76818 4.47025 2.06824 4.17019C2.3683 3.87013 2.77526 3.70156 3.19961 3.70156ZM5.19961 9.30156C5.51787 9.30156 5.82309 9.17513 6.04814 8.95009C6.27318 8.72505 6.39961 8.41982 6.39961 8.10156C6.39961 7.7833 6.27318 7.47808 6.04814 7.25303C5.82309 7.02799 5.51787 6.90156 5.19961 6.90156C4.88135 6.90156 4.57612 7.02799 4.35108 7.25303C4.12604 7.47808 3.99961 7.7833 3.99961 8.10156C3.99961 8.41982 4.12604 8.72505 4.35108 8.95009C4.57612 9.17513 4.88135 9.30156 5.19961 9.30156ZM7.15961 12.5016C7.21859 12.2111 7.21228 11.9111 7.14112 11.6234C7.06996 11.3357 6.93573 11.0674 6.74816 10.8379C6.56058 10.6084 6.32434 10.4234 6.05652 10.2964C5.7887 10.1694 5.49601 10.1036 5.19961 10.1036C4.90321 10.1036 4.61051 10.1694 4.3427 10.2964C4.07488 10.4234 3.83864 10.6084 3.65106 10.8379C3.46349 11.0674 3.32926 11.3357 3.2581 11.6234C3.18694 11.9111 3.18063 12.2111 3.23961 12.5016H7.15961ZM9.59961 7.70156C9.38744 7.70156 9.18395 7.78585 9.03392 7.93588C8.88389 8.08591 8.79961 8.28939 8.79961 8.50156C8.79961 8.71374 8.88389 8.91722 9.03392 9.06725C9.18395 9.21728 9.38744 9.30156 9.59961 9.30156H11.9996C12.2118 9.30156 12.4153 9.21728 12.5653 9.06725C12.7153 8.91722 12.7996 8.71374 12.7996 8.50156C12.7996 8.28939 12.7153 8.08591 12.5653 7.93588C12.4153 7.78585 12.2118 7.70156 11.9996 7.70156H9.59961ZM8.79961 10.9016C8.79961 10.6894 8.88389 10.4859 9.03392 10.3359C9.18395 10.1858 9.38744 10.1016 9.59961 10.1016H11.1996C11.4118 10.1016 11.6153 10.1858 11.7653 10.3359C11.9153 10.4859 11.9996 10.6894 11.9996 10.9016C11.9996 11.1137 11.9153 11.3172 11.7653 11.4672C11.6153 11.6173 11.4118 11.7016 11.1996 11.7016H9.59961C9.38744 11.7016 9.18395 11.6173 9.03392 11.4672C8.88389 11.3172 8.79961 11.1137 8.79961 10.9016Z" fill="#8C8C8C"/>
</svg>
