<svg width="16" height="16" viewBox="0 0 16 16" fill="none" xmlns="http://www.w3.org/2000/svg">
<path d="M1.60254 4.70642L8.00014 7.90482L14.3977 4.70642C14.3741 4.29877 14.1954 3.91561 13.8984 3.6354C13.6014 3.35519 13.2085 3.19914 12.8001 3.19922H3.20014C2.79181 3.19914 2.3989 3.35519 2.10188 3.6354C1.80487 3.91561 1.62622 4.29877 1.60254 4.70642Z" fill="#8C8C8C"/>
<path d="M14.3996 6.49609L7.99961 9.69609L1.59961 6.49609V11.2017C1.59961 11.626 1.76818 12.033 2.06824 12.3331C2.3683 12.6331 2.77526 12.8017 3.19961 12.8017H12.7996C13.224 12.8017 13.6309 12.6331 13.931 12.3331C14.231 12.033 14.3996 11.626 14.3996 11.2017V6.49609Z" fill="#8C8C8C"/>
</svg>
