<svg width="16" height="16" viewBox="0 0 16 16" fill="none" xmlns="http://www.w3.org/2000/svg">
<rect x="2" y="2" width="12" height="12" rx="6" fill="#8C8C8C"/>
<path d="M5 5.875C5 5.77554 5.03951 5.68016 5.10983 5.60983C5.18016 5.53951 5.27554 5.5 5.375 5.5H6.18237C6.27114 5.50004 6.35701 5.53157 6.42472 5.58897C6.49242 5.64638 6.53757 5.72594 6.55212 5.8135L6.82963 7.47662C6.84288 7.55583 6.83037 7.6372 6.79391 7.70876C6.75746 7.78032 6.69899 7.83829 6.62713 7.87413L6.04662 8.164C6.25479 8.67987 6.56481 9.14848 6.95817 9.54183C7.35152 9.93519 7.82013 10.2452 8.336 10.4534L8.62625 9.87288C8.66207 9.80108 8.71998 9.74266 8.79146 9.70621C8.86294 9.66976 8.94423 9.6572 9.02338 9.67037L10.6865 9.94788C10.7741 9.96243 10.8536 10.0076 10.911 10.0753C10.9684 10.143 11 10.2289 11 10.3176V11.125C11 11.2245 10.9605 11.3198 10.8902 11.3902C10.8198 11.4605 10.7245 11.5 10.625 11.5H9.875C7.1825 11.5 5 9.3175 5 6.625V5.875Z" fill="white"/>
</svg>
