<svg width="18" height="18" viewBox="0 0 18 18" fill="none" xmlns="http://www.w3.org/2000/svg">
<path d="M15.7501 10.5L13.5001 8.25H8.25012C8.05121 8.25 7.86044 8.17098 7.71979 8.03033C7.57914 7.88968 7.50012 7.69891 7.50012 7.5V3C7.50012 2.80109 7.57914 2.61032 7.71979 2.46967C7.86044 2.32902 8.05121 2.25 8.25012 2.25H15.0001C15.199 2.25 15.3898 2.32902 15.5305 2.46967C15.6711 2.61032 15.7501 2.80109 15.7501 3V10.5Z" stroke="#EA2D1F" stroke-width="1.5" stroke-linecap="round" stroke-linejoin="round"/>
<path d="M10.5 11.2502V12.7502C10.5 12.9492 10.421 13.1399 10.2803 13.2806C10.1397 13.4212 9.94891 13.5002 9.75 13.5002H4.5L2.25 15.7502V8.25024C2.25 8.05133 2.32902 7.86057 2.46967 7.71991C2.61032 7.57926 2.80109 7.50024 3 7.50024H4.5" stroke="#505053" stroke-width="1.5" stroke-linecap="round" stroke-linejoin="round"/>
</svg>
