<svg width="16" height="17" viewBox="0 0 16 17" fill="none" xmlns="http://www.w3.org/2000/svg">
<path d="M13.3333 6.5H7.33333C6.59695 6.5 6 7.09695 6 7.83333V13.8333C6 14.5697 6.59695 15.1667 7.33333 15.1667H13.3333C14.0697 15.1667 14.6667 14.5697 14.6667 13.8333V7.83333C14.6667 7.09695 14.0697 6.5 13.3333 6.5Z" stroke="#1F70EA" stroke-width="1.5" stroke-linecap="round" stroke-linejoin="round"/>
<path d="M3.3335 10.4999H2.66683C2.31321 10.4999 1.97407 10.3594 1.72402 10.1094C1.47397 9.85935 1.3335 9.52021 1.3335 9.16659V3.16659C1.3335 2.81296 1.47397 2.47382 1.72402 2.22378C1.97407 1.97373 2.31321 1.83325 2.66683 1.83325H8.66683C9.02045 1.83325 9.35959 1.97373 9.60964 2.22378C9.85969 2.47382 10.0002 2.81296 10.0002 3.16659V3.83325" stroke="#1F70EA" stroke-width="1.5" stroke-linecap="round" stroke-linejoin="round"/>
</svg>
