<svg width="16" height="17" viewBox="0 0 16 17" fill="none" xmlns="http://www.w3.org/2000/svg">
<g clip-path="url(#clip0)">
<rect x="2" y="2.60938" width="12" height="12" rx="6" fill="#8C8C8C"/>
<path d="M5 6.48438C5 6.38492 5.03951 6.28954 5.10983 6.21921C5.18016 6.14888 5.27554 6.10938 5.375 6.10938H6.18237C6.27114 6.10942 6.35701 6.14094 6.42472 6.19835C6.49242 6.25575 6.53757 6.33531 6.55212 6.42287L6.82963 8.086C6.84288 8.16521 6.83037 8.24658 6.79391 8.31814C6.75746 8.38969 6.69899 8.44766 6.62713 8.4835L6.04662 8.77338C6.25479 9.28924 6.56481 9.75786 6.95817 10.1512C7.35152 10.5446 7.82013 10.8546 8.336 11.0627L8.62625 10.4823C8.66207 10.4105 8.71998 10.352 8.79146 10.3156C8.86294 10.2791 8.94423 10.2666 9.02338 10.2797L10.6865 10.5573C10.7741 10.5718 10.8536 10.617 10.911 10.6847C10.9684 10.7524 11 10.8382 11 10.927V11.7344C11 11.8338 10.9605 11.9292 10.8902 11.9995C10.8198 12.0699 10.7245 12.1094 10.625 12.1094H9.875C7.1825 12.1094 5 9.92687 5 7.23438V6.48438Z" fill="white"/>
</g>
<defs>
<clipPath id="clip0">
<rect width="12" height="12" fill="white" transform="translate(2 2.60938)"/>
</clipPath>
</defs>
</svg>
