<svg width="16" height="17" viewBox="0 0 16 17" fill="none" xmlns="http://www.w3.org/2000/svg">
<path fill-rule="evenodd" clip-rule="evenodd" d="M7.99961 2.21094C7.78744 2.21094 7.58395 2.29522 7.43392 2.44525C7.28389 2.59528 7.19961 2.79876 7.19961 3.01094V3.81094C7.19961 4.02311 7.28389 4.22659 7.43392 4.37662C7.58395 4.52665 7.78744 4.61094 7.99961 4.61094C8.21178 4.61094 8.41527 4.52665 8.56529 4.37662C8.71532 4.22659 8.79961 4.02311 8.79961 3.81094V3.01094C8.79961 2.79876 8.71532 2.59528 8.56529 2.44525C8.41527 2.29522 8.21178 2.21094 7.99961 2.21094ZM3.19961 3.81094H5.59961C5.59961 4.44746 5.85247 5.05791 6.30255 5.50799C6.75264 5.95808 7.36309 6.21094 7.99961 6.21094C8.63613 6.21094 9.24658 5.95808 9.69667 5.50799C10.1468 5.05791 10.3996 4.44746 10.3996 3.81094H12.7996C13.224 3.81094 13.6309 3.97951 13.931 4.27957C14.231 4.57962 14.3996 4.98659 14.3996 5.41094V12.6109C14.3996 13.0353 14.231 13.4423 13.931 13.7423C13.6309 14.0424 13.224 14.2109 12.7996 14.2109H3.19961C2.77526 14.2109 2.3683 14.0424 2.06824 13.7423C1.76818 13.4423 1.59961 13.0353 1.59961 12.6109V5.41094C1.59961 4.98659 1.76818 4.57962 2.06824 4.27957C2.3683 3.97951 2.77526 3.81094 3.19961 3.81094ZM5.19961 9.41094C5.51787 9.41094 5.82309 9.28451 6.04814 9.05947C6.27318 8.83442 6.39961 8.5292 6.39961 8.21094C6.39961 7.89268 6.27318 7.58745 6.04814 7.36241C5.82309 7.13737 5.51787 7.01094 5.19961 7.01094C4.88135 7.01094 4.57612 7.13737 4.35108 7.36241C4.12604 7.58745 3.99961 7.89268 3.99961 8.21094C3.99961 8.5292 4.12604 8.83442 4.35108 9.05947C4.57612 9.28451 4.88135 9.41094 5.19961 9.41094ZM7.15961 12.6109C7.21859 12.3205 7.21228 12.0205 7.14112 11.7328C7.06996 11.4451 6.93573 11.1767 6.74816 10.9472C6.56058 10.7177 6.32434 10.5328 6.05652 10.4058C5.7887 10.2788 5.49601 10.2129 5.19961 10.2129C4.90321 10.2129 4.61051 10.2788 4.3427 10.4058C4.07488 10.5328 3.83864 10.7177 3.65106 10.9472C3.46349 11.1767 3.32926 11.4451 3.2581 11.7328C3.18694 12.0205 3.18063 12.3205 3.23961 12.6109H7.15961ZM9.59961 7.81094C9.38744 7.81094 9.18395 7.89522 9.03392 8.04525C8.88389 8.19528 8.79961 8.39876 8.79961 8.61094C8.79961 8.82311 8.88389 9.02659 9.03392 9.17662C9.18395 9.32665 9.38744 9.41094 9.59961 9.41094H11.9996C12.2118 9.41094 12.4153 9.32665 12.5653 9.17662C12.7153 9.02659 12.7996 8.82311 12.7996 8.61094C12.7996 8.39876 12.7153 8.19528 12.5653 8.04525C12.4153 7.89522 12.2118 7.81094 11.9996 7.81094H9.59961ZM8.79961 11.0109C8.79961 10.7988 8.88389 10.5953 9.03392 10.4453C9.18395 10.2952 9.38744 10.2109 9.59961 10.2109H11.1996C11.4118 10.2109 11.6153 10.2952 11.7653 10.4453C11.9153 10.5953 11.9996 10.7988 11.9996 11.0109C11.9996 11.2231 11.9153 11.4266 11.7653 11.5766C11.6153 11.7267 11.4118 11.8109 11.1996 11.8109H9.59961C9.38744 11.8109 9.18395 11.7267 9.03392 11.5766C8.88389 11.4266 8.79961 11.2231 8.79961 11.0109Z" fill="#8C8C8C"/>
</svg>
