<svg width="16" height="17" viewBox="0 0 16 17" fill="none" xmlns="http://www.w3.org/2000/svg">
<path d="M1.60254 5.31579L8.00014 8.51419L14.3977 5.31579C14.3741 4.90815 14.1954 4.52498 13.8984 4.24478C13.6014 3.96457 13.2085 3.80852 12.8001 3.80859H3.20014C2.79181 3.80852 2.3989 3.96457 2.10188 4.24478C1.80487 4.52498 1.62622 4.90815 1.60254 5.31579Z" fill="#8C8C8C"/>
<path d="M14.3996 7.10547L7.99961 10.3055L1.59961 7.10547V11.8111C1.59961 12.2354 1.76818 12.6424 2.06824 12.9424C2.3683 13.2425 2.77526 13.4111 3.19961 13.4111H12.7996C13.224 13.4111 13.6309 13.2425 13.931 12.9424C14.231 12.6424 14.3996 12.2354 14.3996 11.8111V7.10547Z" fill="#8C8C8C"/>
</svg>
