<svg width="16" height="17" viewBox="0 0 16 17" fill="none" xmlns="http://www.w3.org/2000/svg">
<path d="M6.74679 6.54563C6.87079 6.46323 7.02359 6.38883 7.20039 6.33203V7.69043C7.04017 7.64021 6.88756 7.56835 6.74679 7.47683C6.45639 7.28323 6.40039 7.10243 6.40039 7.01123C6.40039 6.92003 6.45639 6.73923 6.74679 6.54563ZM8.80039 10.8904V9.53203C8.97639 9.58883 9.12999 9.66323 9.25399 9.74563C9.54519 9.94003 9.60039 10.12 9.60039 10.2112C9.60039 10.3024 9.54439 10.4832 9.25399 10.6768C9.11322 10.7684 8.96061 10.8402 8.80039 10.8904Z" fill="#8C8C8C"/>
<path fill-rule="evenodd" clip-rule="evenodd" d="M7.99961 15.0109C9.69699 15.0109 11.3249 14.3367 12.5251 13.1364C13.7253 11.9362 14.3996 10.3083 14.3996 8.61094C14.3996 6.91355 13.7253 5.28569 12.5251 4.08545C11.3249 2.88522 9.69699 2.21094 7.99961 2.21094C6.30222 2.21094 4.67436 2.88522 3.47413 4.08545C2.27389 5.28569 1.59961 6.91355 1.59961 8.61094C1.59961 10.3083 2.27389 11.9362 3.47413 13.1364C4.67436 14.3367 6.30222 15.0109 7.99961 15.0109ZM8.79961 4.61094C8.79961 4.39876 8.71532 4.19528 8.56529 4.04525C8.41527 3.89522 8.21178 3.81094 7.99961 3.81094C7.78744 3.81094 7.58395 3.89522 7.43392 4.04525C7.28389 4.19528 7.19961 4.39876 7.19961 4.61094V4.68454C6.72175 4.7696 6.26582 4.94969 5.85881 5.21414C5.28121 5.59814 4.79961 6.21814 4.79961 7.01094C4.79961 7.80294 5.28121 8.42294 5.85881 8.80774C6.24281 9.06374 6.70201 9.24374 7.19961 9.33734V10.8901C6.88681 10.7885 6.65561 10.6365 6.52521 10.4869C6.45753 10.4039 6.37386 10.3353 6.27917 10.2852C6.18447 10.2351 6.08067 10.2045 5.97394 10.1953C5.8672 10.1861 5.7597 10.1984 5.65781 10.2315C5.55593 10.2646 5.46173 10.3178 5.3808 10.388C5.29988 10.4582 5.23388 10.544 5.18672 10.6402C5.13956 10.7364 5.11221 10.8411 5.10628 10.948C5.10035 11.055 5.11596 11.1621 5.15219 11.2629C5.18843 11.3637 5.24454 11.4562 5.31721 11.5349C5.76681 12.0541 6.44761 12.3957 7.19961 12.5373V12.6109C7.19961 12.8231 7.28389 13.0266 7.43392 13.1766C7.58395 13.3267 7.78744 13.4109 7.99961 13.4109C8.21178 13.4109 8.41527 13.3267 8.56529 13.1766C8.71532 13.0266 8.79961 12.8231 8.79961 12.6109V12.5373C9.27747 12.4523 9.7334 12.2722 10.1404 12.0077C10.718 11.6237 11.1996 11.0037 11.1996 10.2109C11.1996 9.41894 10.718 8.79894 10.1404 8.41414C9.7334 8.14969 9.27747 7.9696 8.79961 7.88454V6.33174C9.11241 6.43334 9.34361 6.58534 9.47401 6.73494C9.54232 6.81599 9.62606 6.88265 9.72035 6.93106C9.81465 6.97947 9.91762 7.00866 10.0233 7.01693C10.129 7.0252 10.2352 7.01239 10.3359 6.97924C10.4366 6.94609 10.5297 6.89327 10.6098 6.82383C10.6899 6.7544 10.7554 6.66974 10.8024 6.57478C10.8495 6.47981 10.8773 6.37644 10.8841 6.27066C10.8909 6.16488 10.8766 6.05881 10.842 5.9586C10.8075 5.85839 10.7534 5.76605 10.6828 5.68694C10.2324 5.16774 9.55241 4.82614 8.79961 4.68454V4.61094Z" fill="#8C8C8C"/>
</svg>
