<svg width="16" height="16" viewBox="0 0 16 16" fill="none" xmlns="http://www.w3.org/2000/svg">
<path d="M10.6668 1.3335V4.00016" stroke="#505053" stroke-width="1.5" stroke-linecap="round" stroke-linejoin="round"/>
<path d="M5.33333 1.3335V4.00016" stroke="#505053" stroke-width="1.5" stroke-linecap="round" stroke-linejoin="round"/>
<path d="M2 5.99984H14" stroke="#505053" stroke-width="1.5" stroke-linecap="round" stroke-linejoin="round"/>
<path fill-rule="evenodd" clip-rule="evenodd" d="M12.6667 2.6665H3.33333C2.59667 2.6665 2 3.26317 2 3.99984V12.6665C2 13.4032 2.59667 13.9998 3.33333 13.9998H12.6667C13.4033 13.9998 14 13.4032 14 12.6665V3.99984C14 3.26317 13.4033 2.6665 12.6667 2.6665Z" stroke="#505053" stroke-width="1.5" stroke-linecap="round" stroke-linejoin="round"/>
<path d="M4.67544 8.486C4.58344 8.486 4.50878 8.56067 4.50944 8.65267C4.50944 8.74467 4.58411 8.81934 4.67611 8.81934C4.76811 8.81934 4.84278 8.74467 4.84278 8.65267C4.84278 8.56067 4.76811 8.486 4.67544 8.486" stroke="#505053" stroke-width="1.5" stroke-linecap="round" stroke-linejoin="round"/>
<path d="M8.00845 8.486C7.91645 8.486 7.84178 8.56067 7.84245 8.65267C7.84245 8.74467 7.91712 8.81934 8.00912 8.81934C8.10112 8.81934 8.17578 8.74467 8.17578 8.65267C8.17578 8.56067 8.10112 8.486 8.00845 8.486" stroke="#505053" stroke-width="1.5" stroke-linecap="round" stroke-linejoin="round"/>
<path d="M11.3419 8.486C11.2499 8.486 11.1753 8.56067 11.1759 8.65267C11.1759 8.74467 11.2506 8.81934 11.3426 8.81934C11.4346 8.81934 11.5093 8.74467 11.5093 8.65267C11.5093 8.56067 11.4346 8.486 11.3419 8.486" stroke="#505053" stroke-width="1.5" stroke-linecap="round" stroke-linejoin="round"/>
<path d="M4.67544 11.1525C4.58344 11.1525 4.50878 11.2272 4.50944 11.3192C4.50944 11.4112 4.58411 11.4858 4.67611 11.4858C4.76811 11.4858 4.84278 11.4112 4.84278 11.3192C4.84278 11.2272 4.76811 11.1525 4.67544 11.1525" stroke="#505053" stroke-width="1.5" stroke-linecap="round" stroke-linejoin="round"/>
<path d="M8.00845 11.1525C7.91645 11.1525 7.84178 11.2272 7.84245 11.3192C7.84245 11.4112 7.91712 11.4858 8.00912 11.4858C8.10112 11.4858 8.17578 11.4112 8.17578 11.3192C8.17578 11.2272 8.10112 11.1525 8.00845 11.1525" stroke="#505053" stroke-width="1.5" stroke-linecap="round" stroke-linejoin="round"/>
</svg>
