<svg width="13" height="15" viewBox="0 0 13 15" fill="none" xmlns="http://www.w3.org/2000/svg">
<path d="M3.17441 5.45C3.17441 5.03578 2.83863 4.7 2.42441 4.7C2.0102 4.7 1.67441 5.03578 1.67441 5.45H3.17441ZM11.5744 5.45C11.5744 5.03578 11.2386 4.7 10.8244 4.7C10.4102 4.7 10.0744 5.03578 10.0744 5.45H11.5744ZM8.775 6.14999C8.775 5.73578 8.43921 5.39999 8.025 5.39999C7.61079 5.39999 7.275 5.73578 7.275 6.14999H8.775ZM7.275 11.05C7.275 11.4642 7.61079 11.8 8.025 11.8C8.43921 11.8 8.775 11.4642 8.775 11.05H7.275ZM5.9748 6.14999C5.9748 5.73578 5.63902 5.39999 5.2248 5.39999C4.81059 5.39999 4.4748 5.73578 4.4748 6.14999H5.9748ZM4.4748 11.05C4.4748 11.4642 4.81059 11.8 5.2248 11.8C5.63902 11.8 5.9748 11.4642 5.9748 11.05H4.4748ZM1.375 2.6C0.960786 2.6 0.625 2.93578 0.625 3.35C0.625 3.76421 0.960786 4.1 1.375 4.1V2.6ZM11.875 4.1C12.2892 4.1 12.625 3.76421 12.625 3.35C12.625 2.93578 12.2892 2.6 11.875 2.6V4.1ZM3.11212 3.11283C2.98113 3.50579 3.1935 3.93053 3.58646 4.06151C3.97942 4.1925 4.40416 3.98013 4.53515 3.58717L3.11212 3.11283ZM4.20443 2.2076L4.91595 2.44477L4.916 2.4446L4.20443 2.2076ZM5.53303 1.25L5.53285 2H5.53303V1.25ZM7.71423 1.25V2L7.71516 2L7.71423 1.25ZM9.04423 2.2076L9.75601 1.97122L9.7558 1.9706L9.04423 2.2076ZM8.71186 3.58639C8.84241 3.97949 9.26692 4.19233 9.66002 4.06177C10.0531 3.93122 10.266 3.50672 10.1354 3.11362L8.71186 3.58639ZM1.67441 5.45V12.45H3.17441V5.45H1.67441ZM1.67441 12.45C1.67441 13.6374 2.637 14.6 3.82441 14.6V13.1C3.46543 13.1 3.17441 12.809 3.17441 12.45H1.67441ZM3.82441 14.6H9.42441V13.1H3.82441V14.6ZM9.42441 14.6C10.6118 14.6 11.5744 13.6374 11.5744 12.45H10.0744C10.0744 12.809 9.7834 13.1 9.42441 13.1V14.6ZM11.5744 12.45V5.45H10.0744V12.45H11.5744ZM7.275 6.14999V11.05H8.775V6.14999H7.275ZM4.4748 6.14999V11.05H5.9748V6.14999H4.4748ZM1.375 4.1H11.875V2.6H1.375V4.1ZM4.53515 3.58717L4.91595 2.44477L3.49292 1.97043L3.11212 3.11283L4.53515 3.58717ZM4.916 2.4446C5.00445 2.17905 5.25296 1.99993 5.53285 2L5.53321 0.500001C4.60741 0.49978 3.78542 1.09224 3.49286 1.9706L4.916 2.4446ZM5.53303 2H7.71423V0.500001H5.53303V2ZM7.71516 2C7.9953 1.99965 8.24414 2.17882 8.33266 2.4446L9.7558 1.9706C9.463 1.09148 8.6399 0.498854 7.7133 0.500002L7.71516 2ZM8.33246 2.44399L8.71186 3.58639L10.1354 3.11362L9.75601 1.97122L8.33246 2.44399Z" fill="#505053"/>
</svg>
