<svg width="18" height="18" viewBox="0 0 18 18" fill="none" xmlns="http://www.w3.org/2000/svg">
<path d="M5.24827 6.75C5.24827 6.33579 4.91248 6 4.49827 6C4.08405 6 3.74827 6.33579 3.74827 6.75H5.24827ZM14.2483 6.75C14.2483 6.33579 13.9125 6 13.4983 6C13.0841 6 12.7483 6.33579 12.7483 6.75H14.2483ZM3.37415 3.74971C2.95993 3.74971 2.62415 4.08549 2.62415 4.49971C2.62415 4.91392 2.95993 5.24971 3.37415 5.24971V3.74971ZM14.6241 5.24971C15.0384 5.24971 15.3741 4.91392 15.3741 4.49971C15.3741 4.08549 15.0384 3.74971 14.6241 3.74971V5.24971ZM5.28705 4.26283C5.15606 4.65579 5.36843 5.08053 5.76139 5.21151C6.15435 5.3425 6.57909 5.13013 6.71007 4.73717L5.28705 4.26283ZM6.40656 3.276L7.11807 3.51317L7.11813 3.513L6.40656 3.276ZM7.83006 2.25L7.82988 3H7.83006V2.25ZM10.1671 2.25V3L10.168 3L10.1671 2.25ZM11.5921 3.276L12.3038 3.03962L12.3036 3.039L11.5921 3.276ZM11.2868 4.73639C11.4173 5.12949 11.8418 5.34233 12.2349 5.21177C12.628 5.08122 12.8409 4.65672 12.7103 4.26361L11.2868 4.73639ZM3.74827 6.75V14.25H5.24827V6.75H3.74827ZM3.74827 14.25C3.74827 15.4926 4.75563 16.5 5.99827 16.5V15C5.58405 15 5.24827 14.6642 5.24827 14.25H3.74827ZM5.99827 16.5H11.9983V15H5.99827V16.5ZM11.9983 16.5C13.2409 16.5 14.2483 15.4926 14.2483 14.25H12.7483C12.7483 14.6642 12.4125 15 11.9983 15V16.5ZM14.2483 14.25V6.75H12.7483V14.25H14.2483ZM3.37415 5.24971H14.6241V3.74971H3.37415V5.24971ZM6.71007 4.73717L7.11807 3.51317L5.69505 3.03883L5.28705 4.26283L6.71007 4.73717ZM7.11813 3.513C7.22018 3.2066 7.50692 2.99992 7.82988 3L7.83024 1.5C6.86137 1.49977 6.00115 2.11978 5.69499 3.039L7.11813 3.513ZM7.83006 3H10.1671V1.5H7.83006V3ZM10.168 3C10.4912 2.9996 10.7783 3.20633 10.8805 3.513L12.3036 3.039C11.9972 2.11899 11.1358 1.4988 10.1661 1.5L10.168 3ZM10.8803 3.51239L11.2868 4.73639L12.7103 4.26361L12.3038 3.03962L10.8803 3.51239Z" fill="#505053"/>
<path d="M10.5 7.50098V12.751" stroke="#EA2D1F"/>
<path d="M7.49902 7.50098V12.751" stroke="#EA2D1F"/>
</svg>
