<svg width="16" height="17" viewBox="0 0 16 17" fill="none" xmlns="http://www.w3.org/2000/svg">
<path d="M5.33333 5.27775V2.61108M10.6667 5.27775V2.61108M3.33333 14.6111H12.6667C13.0203 14.6111 13.3594 14.4706 13.6095 14.2206C13.8595 13.9705 14 13.6314 14 13.2778V5.27775C14 4.92413 13.8595 4.58499 13.6095 4.33494C13.3594 4.08489 13.0203 3.94442 12.6667 3.94442H3.33333C2.97971 3.94442 2.64057 4.08489 2.39052 4.33494C2.14048 4.58499 2 4.92413 2 5.27775V13.2778C2 13.6314 2.14048 13.9705 2.39052 14.2206C2.64057 14.4706 2.97971 14.6111 3.33333 14.6111Z" stroke="#8C8C8C" stroke-width="1.5" stroke-linecap="round" stroke-linejoin="round"/>
<path d="M4.6665 7.94434H7.99984H11.3332" stroke="#8C8C8C" stroke-width="1.5" stroke-linecap="round" stroke-linejoin="round"/>
</svg>
