<svg width="18" height="18" viewBox="0 0 18 18" fill="none" xmlns="http://www.w3.org/2000/svg">
<path d="M8.99991 2.01758L13.2449 6.26258C14.0844 7.10154 14.6563 8.17063 14.8881 9.33462C15.1199 10.4986 15.0013 11.7052 14.5473 12.8018C14.0933 13.8984 13.3243 14.8357 12.3375 15.4952C11.3507 16.1546 10.1905 16.5066 9.00366 16.5066C7.81681 16.5066 6.65661 16.1546 5.66983 15.4952C4.68305 14.8357 3.91402 13.8984 3.46001 12.8018C3.006 11.7052 2.88741 10.4986 3.11924 9.33462C3.35107 8.17063 3.92291 7.10154 4.76241 6.26258L8.99991 2.01758Z" stroke="#EA2D1F" stroke-width="1.5" stroke-linecap="round" stroke-linejoin="round"/>
<line x1="6.5" y1="11.5" x2="11.5" y2="11.5" stroke="#505053" stroke-linecap="round"/>
</svg>
