<svg width="70" height="70" viewBox="0 0 70 70" fill="none" xmlns="http://www.w3.org/2000/svg">
<path d="M35.268 17.6338C31.5784 17.6338 27.879 19.0282 25.0652 21.8418C22.8817 24.0253 21.5808 26.7573 21.091 29.5899C15.5038 30.4974 11.2222 35.3109 11.2222 41.1452C11.2222 47.625 16.4981 52.901 22.9779 52.901H49.1611C54.7672 52.901 59.3138 48.3544 59.3138 42.7483C59.3138 37.2906 54.996 32.8776 49.5953 32.6457C49.7516 28.7574 48.4167 24.8045 45.454 21.8418C42.6421 19.0297 38.9575 17.6338 35.268 17.6338ZM35.268 19.7712C38.4161 19.7712 41.5464 20.9565 43.9512 23.3614C46.7306 26.1408 47.8911 29.9153 47.4579 33.5307C47.4388 33.6819 47.4523 33.8353 47.4974 33.9808C47.5425 34.1263 47.6182 34.2605 47.7194 34.3743C47.8206 34.4882 47.945 34.5791 48.0842 34.641C48.2234 34.7028 48.3742 34.7342 48.5266 34.733H49.1611C53.62 34.733 57.1764 38.2893 57.1764 42.7483C57.1764 47.2072 53.62 50.7636 49.1611 50.7636H22.9779C17.6532 50.7636 13.3596 46.4699 13.3596 41.1452C13.3596 36.1174 17.1901 32.0054 22.0929 31.5603C22.3371 31.5391 22.5665 31.4347 22.7429 31.2644C22.9192 31.0942 23.0316 30.8685 23.0614 30.6252C23.3697 27.9693 24.5276 25.4018 26.5681 23.3614C28.9713 20.9581 32.1198 19.7712 35.268 19.7712Z" fill="#505053"/>
<path d="M35.2265 29.2672C35.3792 29.1273 35.6587 29.0054 35.9445 29C36.2281 28.9991 36.4273 29.0522 36.6626 29.2672L42.5404 34.6107C42.9586 34.9859 43.0354 35.7181 42.6239 36.1303C42.227 36.5279 41.5192 36.5758 41.1043 36.1971L37.0132 32.4733V43.9618C37.0132 44.5521 36.5349 45.0305 35.9445 45.0305C35.3542 45.0305 34.8758 44.5521 34.8758 43.9618V32.4733L30.7847 36.1971C30.3698 36.5758 29.6422 36.5467 29.2651 36.1303C28.8881 35.7138 28.9094 34.993 29.3486 34.6107L35.2265 29.2672Z" fill="#EA2D1F"/>
</svg>
