<svg width="38" height="38" viewBox="0 0 38 38" fill="none" xmlns="http://www.w3.org/2000/svg">
<path d="M33.2502 22.1667L28.5002 17.4167H17.4168C16.9969 17.4167 16.5942 17.2499 16.2972 16.9529C16.0003 16.656 15.8335 16.2533 15.8335 15.8333V6.33333C15.8335 5.91341 16.0003 5.51068 16.2972 5.21375C16.5942 4.91681 16.9969 4.75 17.4168 4.75H31.6668C32.0868 4.75 32.4895 4.91681 32.7864 5.21375C33.0834 5.51068 33.2502 5.91341 33.2502 6.33333V22.1667Z" stroke="#505053" stroke-width="2.5" stroke-linecap="round" stroke-linejoin="round"/>
<path d="M22.1667 23.7504V26.9171C22.1667 27.337 21.9999 27.7397 21.7029 28.0367C21.406 28.3336 21.0033 28.5004 20.5833 28.5004H9.5L4.75 33.2504V17.4171C4.75 16.9971 4.91681 16.5944 5.21375 16.2975C5.51068 16.0006 5.91341 15.8337 6.33333 15.8337H9.5" stroke="#505053" stroke-width="2.5" stroke-linecap="round" stroke-linejoin="round"/>
</svg>
