<svg width="20" height="20" viewBox="0 0 20 20" fill="none" xmlns="http://www.w3.org/2000/svg">
<path fill-rule="evenodd" clip-rule="evenodd" d="M8.25782 3.09812C9.02282 1.73812 10.9798 1.73812 11.7438 3.09812L17.3238 13.0181C18.0738 14.3521 17.1108 15.9981 15.5818 15.9981H4.42083C2.89083 15.9981 1.92782 14.3521 2.67782 13.0181L8.25782 3.09812ZM11.0008 12.9991C11.0008 13.2643 10.8955 13.5187 10.7079 13.7062C10.5204 13.8938 10.266 13.9991 10.0008 13.9991C9.73561 13.9991 9.48125 13.8938 9.29372 13.7062C9.10618 13.5187 9.00082 13.2643 9.00082 12.9991C9.00082 12.7339 9.10618 12.4796 9.29372 12.292C9.48125 12.1045 9.73561 11.9991 10.0008 11.9991C10.266 11.9991 10.5204 12.1045 10.7079 12.292C10.8955 12.4796 11.0008 12.7339 11.0008 12.9991ZM10.0008 4.99913C9.73561 4.99913 9.48125 5.10448 9.29372 5.29202C9.10618 5.47955 9.00082 5.73391 9.00082 5.99913V8.99913C9.00082 9.26434 9.10618 9.5187 9.29372 9.70623C9.48125 9.89377 9.73561 9.99913 10.0008 9.99913C10.266 9.99913 10.5204 9.89377 10.7079 9.70623C10.8955 9.5187 11.0008 9.26434 11.0008 8.99913V5.99913C11.0008 5.73391 10.8955 5.47955 10.7079 5.29202C10.5204 5.10448 10.266 4.99913 10.0008 4.99913Z" fill="#A60D02"/>
</svg>
