<svg width="16" height="16" viewBox="0 0 16 16" fill="none" xmlns="http://www.w3.org/2000/svg">
<path fill-rule="evenodd" clip-rule="evenodd" d="M7.99961 1.60156C7.78744 1.60156 7.58395 1.68585 7.43392 1.83588C7.28389 1.98591 7.19961 2.18939 7.19961 2.40156V3.20156C7.19961 3.41374 7.28389 3.61722 7.43392 3.76725C7.58395 3.91728 7.78744 4.00156 7.99961 4.00156C8.21178 4.00156 8.41527 3.91728 8.56529 3.76725C8.71532 3.61722 8.79961 3.41374 8.79961 3.20156V2.40156C8.79961 2.18939 8.71532 1.98591 8.56529 1.83588C8.41527 1.68585 8.21178 1.60156 7.99961 1.60156ZM3.19961 3.20156H5.59961C5.59961 3.83808 5.85247 4.44853 6.30255 4.89862C6.75264 5.34871 7.36309 5.60156 7.99961 5.60156C8.63613 5.60156 9.24658 5.34871 9.69667 4.89862C10.1468 4.44853 10.3996 3.83808 10.3996 3.20156H12.7996C13.224 3.20156 13.6309 3.37013 13.931 3.67019C14.231 3.97025 14.3996 4.37722 14.3996 4.80156V12.0016C14.3996 12.4259 14.231 12.8329 13.931 13.1329C13.6309 13.433 13.224 13.6016 12.7996 13.6016H3.19961C2.77526 13.6016 2.3683 13.433 2.06824 13.1329C1.76818 12.8329 1.59961 12.4259 1.59961 12.0016V4.80156C1.59961 4.37722 1.76818 3.97025 2.06824 3.67019C2.3683 3.37013 2.77526 3.20156 3.19961 3.20156ZM5.19961 8.80156C5.51787 8.80156 5.82309 8.67513 6.04814 8.45009C6.27318 8.22505 6.39961 7.91982 6.39961 7.60156C6.39961 7.2833 6.27318 6.97808 6.04814 6.75303C5.82309 6.52799 5.51787 6.40156 5.19961 6.40156C4.88135 6.40156 4.57612 6.52799 4.35108 6.75303C4.12604 6.97808 3.99961 7.2833 3.99961 7.60156C3.99961 7.91982 4.12604 8.22505 4.35108 8.45009C4.57612 8.67513 4.88135 8.80156 5.19961 8.80156ZM7.15961 12.0016C7.21859 11.7111 7.21228 11.4111 7.14112 11.1234C7.06996 10.8357 6.93573 10.5674 6.74816 10.3379C6.56058 10.1084 6.32434 9.92344 6.05652 9.79644C5.7887 9.66945 5.49601 9.60357 5.19961 9.60357C4.90321 9.60357 4.61051 9.66945 4.3427 9.79644C4.07488 9.92344 3.83864 10.1084 3.65106 10.3379C3.46349 10.5674 3.32926 10.8357 3.2581 11.1234C3.18694 11.4111 3.18063 11.7111 3.23961 12.0016H7.15961ZM9.59961 7.20156C9.38744 7.20156 9.18395 7.28585 9.03392 7.43588C8.88389 7.58591 8.79961 7.78939 8.79961 8.00156C8.79961 8.21374 8.88389 8.41722 9.03392 8.56725C9.18395 8.71728 9.38744 8.80156 9.59961 8.80156H11.9996C12.2118 8.80156 12.4153 8.71728 12.5653 8.56725C12.7153 8.41722 12.7996 8.21374 12.7996 8.00156C12.7996 7.78939 12.7153 7.58591 12.5653 7.43588C12.4153 7.28585 12.2118 7.20156 11.9996 7.20156H9.59961ZM8.79961 10.4016C8.79961 10.1894 8.88389 9.98591 9.03392 9.83588C9.18395 9.68585 9.38744 9.60156 9.59961 9.60156H11.1996C11.4118 9.60156 11.6153 9.68585 11.7653 9.83588C11.9153 9.98591 11.9996 10.1894 11.9996 10.4016C11.9996 10.6137 11.9153 10.8172 11.7653 10.9672C11.6153 11.1173 11.4118 11.2016 11.1996 11.2016H9.59961C9.38744 11.2016 9.18395 11.1173 9.03392 10.9672C8.88389 10.8172 8.79961 10.6137 8.79961 10.4016Z" fill="#CDD2DB"/>
</svg>
