<svg width="16" height="16" viewBox="0 0 16 16" fill="none" xmlns="http://www.w3.org/2000/svg">
<path d="M6.74679 5.93626C6.87079 5.85386 7.02359 5.77946 7.20039 5.72266V7.08106C7.04017 7.03084 6.88756 6.95898 6.74679 6.86746C6.45639 6.67386 6.40039 6.49306 6.40039 6.40186C6.40039 6.31066 6.45639 6.12986 6.74679 5.93626ZM8.80039 10.2811V8.92266C8.97639 8.97946 9.12999 9.05386 9.25399 9.13626C9.54519 9.33066 9.60039 9.51066 9.60039 9.60186C9.60039 9.69306 9.54439 9.87386 9.25399 10.0675C9.11322 10.159 8.96061 10.2308 8.80039 10.2811Z" fill="#CDD2DB"/>
<path fill-rule="evenodd" clip-rule="evenodd" d="M7.99961 14.4016C9.69699 14.4016 11.3249 13.7273 12.5251 12.527C13.7253 11.3268 14.3996 9.69895 14.3996 8.00156C14.3996 6.30418 13.7253 4.67631 12.5251 3.47608C11.3249 2.27585 9.69699 1.60156 7.99961 1.60156C6.30222 1.60156 4.67436 2.27585 3.47413 3.47608C2.27389 4.67631 1.59961 6.30418 1.59961 8.00156C1.59961 9.69895 2.27389 11.3268 3.47413 12.527C4.67436 13.7273 6.30222 14.4016 7.99961 14.4016ZM8.79961 4.00156C8.79961 3.78939 8.71532 3.58591 8.56529 3.43588C8.41527 3.28585 8.21178 3.20156 7.99961 3.20156C7.78744 3.20156 7.58395 3.28585 7.43392 3.43588C7.28389 3.58591 7.19961 3.78939 7.19961 4.00156V4.07516C6.72175 4.16023 6.26582 4.34032 5.85881 4.60476C5.28121 4.98876 4.79961 5.60876 4.79961 6.40156C4.79961 7.19356 5.28121 7.81356 5.85881 8.19836C6.24281 8.45436 6.70201 8.63436 7.19961 8.72796V10.2808C6.88681 10.1792 6.65561 10.0272 6.52521 9.87756C6.45753 9.79451 6.37386 9.7259 6.27917 9.6758C6.18447 9.6257 6.08067 9.59513 5.97394 9.58591C5.8672 9.57668 5.7597 9.58899 5.65781 9.6221C5.55593 9.65521 5.46173 9.70844 5.3808 9.77865C5.29988 9.84886 5.23388 9.9346 5.18672 10.0308C5.13956 10.127 5.11221 10.2317 5.10628 10.3386C5.10035 10.4456 5.11596 10.5527 5.15219 10.6535C5.18843 10.7543 5.24454 10.8468 5.31721 10.9256C5.76681 11.4448 6.44761 11.7864 7.19961 11.928V12.0016C7.19961 12.2137 7.28389 12.4172 7.43392 12.5672C7.58395 12.7173 7.78744 12.8016 7.99961 12.8016C8.21178 12.8016 8.41527 12.7173 8.56529 12.5672C8.71532 12.4172 8.79961 12.2137 8.79961 12.0016V11.928C9.27747 11.8429 9.7334 11.6628 10.1404 11.3984C10.718 11.0144 11.1996 10.3944 11.1996 9.60156C11.1996 8.80956 10.718 8.18956 10.1404 7.80476C9.7334 7.54032 9.27747 7.36023 8.79961 7.27516V5.72236C9.11241 5.82396 9.34361 5.97596 9.47401 6.12556C9.54232 6.20661 9.62606 6.27328 9.72035 6.32169C9.81465 6.3701 9.91762 6.39929 10.0233 6.40756C10.129 6.41583 10.2352 6.40302 10.3359 6.36987C10.4366 6.33672 10.5297 6.28389 10.6098 6.21446C10.6899 6.14502 10.7554 6.06036 10.8024 5.9654C10.8495 5.87044 10.8773 5.76706 10.8841 5.66128C10.8909 5.55551 10.8766 5.44943 10.842 5.34922C10.8075 5.24902 10.7534 5.15667 10.6828 5.07756C10.2324 4.55836 9.55241 4.21676 8.79961 4.07516V4.00156Z" fill="#CDD2DB"/>
</svg>
