<svg width="18" height="18" viewBox="0 0 18 18" fill="none" xmlns="http://www.w3.org/2000/svg">
<path d="M2.25049 12.75V14.25H6.75049V12.75H2.25049ZM2.25049 3.75V5.25H9.75049V3.75H2.25049ZM9.75049 15.75V14.25H15.7505V12.75H9.75049V11.25H8.25049V15.75H9.75049ZM5.25049 6.75V8.25H2.25049V9.75H5.25049V11.25H6.75049V6.75H5.25049ZM15.7505 9.75V8.25H8.25049V9.75H15.7505ZM11.2505 6.75H12.7505V5.25H15.7505V3.75H12.7505V2.25H11.2505V6.75Z" fill="#505053"/>
<path d="M2.25049 14.25V12.75H6.75049V14.25H2.25049Z" fill="#EA2D1F"/>
<path d="M2.25049 5.25V3.75H9.75049V5.25H2.25049Z" fill="#EA2D1F"/>
<path d="M9.75049 14.25V15.75H8.25049V11.25H9.75049V12.75H15.7505V14.25H9.75049Z" fill="#EA2D1F"/>
<path d="M12.7505 6.75H11.2505V2.25H12.7505V3.75H15.7505V5.25H12.7505V6.75Z" fill="#EA2D1F"/>
</svg>
