<svg width="16" height="16" viewBox="0 0 16 16" fill="none" xmlns="http://www.w3.org/2000/svg">
<path d="M12.0003 2.6665H4.00033C3.26395 2.6665 2.66699 3.26346 2.66699 3.99984V5.33317C2.66699 6.06955 3.26395 6.6665 4.00033 6.6665H12.0003C12.7367 6.6665 13.3337 6.06955 13.3337 5.33317V3.99984C13.3337 3.26346 12.7367 2.6665 12.0003 2.6665Z" stroke="#2C3E50" stroke-width="1.5" stroke-linecap="round" stroke-linejoin="round"/>
<path d="M12.0003 9.3335H4.00033C3.26395 9.3335 2.66699 9.93045 2.66699 10.6668V12.0002C2.66699 12.7365 3.26395 13.3335 4.00033 13.3335H12.0003C12.7367 13.3335 13.3337 12.7365 13.3337 12.0002V10.6668C13.3337 9.93045 12.7367 9.3335 12.0003 9.3335Z" stroke="#2C3E50" stroke-width="1.5" stroke-linecap="round" stroke-linejoin="round"/>
</svg>
