<svg width="19" height="18" viewBox="0 0 19 18" fill="none" xmlns="http://www.w3.org/2000/svg">
<path d="M9.53564 6.00024C10.3606 6.00024 11.0356 5.32524 11.0356 4.50024C11.0356 3.67524 10.3606 3.00024 9.53564 3.00024C8.71064 3.00024 8.03564 3.67524 8.03564 4.50024C8.03564 5.32524 8.71064 6.00024 9.53564 6.00024ZM9.53564 7.50024C8.71064 7.50024 8.03564 8.17524 8.03564 9.00024C8.03564 9.82524 8.71064 10.5002 9.53564 10.5002C10.3606 10.5002 11.0356 9.82524 11.0356 9.00024C11.0356 8.17524 10.3606 7.50024 9.53564 7.50024ZM9.53564 12.0002C8.71064 12.0002 8.03564 12.6752 8.03564 13.5002C8.03564 14.3252 8.71064 15.0002 9.53564 15.0002C10.3606 15.0002 11.0356 14.3252 11.0356 13.5002C11.0356 12.6752 10.3606 12.0002 9.53564 12.0002Z" fill="#505053"/>
</svg>
