<svg width="18" height="9" viewBox="0 0 18 9" fill="none" xmlns="http://www.w3.org/2000/svg">
<g clip-path="url(#clip0)">
<rect x="18" y="0.465088" width="8" height="18" rx="4" transform="rotate(90 18 0.465088)" fill="#E8EAEE"/>
<path d="M12 4.46509C12 5.29009 12.675 5.96509 13.5 5.96509C14.325 5.96509 15 5.29009 15 4.46509C15 3.64009 14.325 2.96509 13.5 2.96509C12.675 2.96509 12 3.64009 12 4.46509ZM10.5 4.46509C10.5 3.64009 9.825 2.96509 9 2.96509C8.175 2.96509 7.5 3.64009 7.5 4.46509C7.5 5.29009 8.175 5.96509 9 5.96509C9.825 5.96509 10.5 5.29009 10.5 4.46509ZM6 4.46509C6 3.64009 5.325 2.96509 4.5 2.96509C3.675 2.96509 3 3.64009 3 4.46509C3 5.29009 3.675 5.96509 4.5 5.96509C5.325 5.96509 6 5.29009 6 4.46509Z" fill="#505053"/>
</g>
<defs>
<clipPath id="clip0">
<rect x="18" y="0.465088" width="8" height="18" rx="4" transform="rotate(90 18 0.465088)" fill="white"/>
</clipPath>
</defs>
</svg>
