<svg width="24" height="24" viewBox="0 0 24 24" fill="none" xmlns="http://www.w3.org/2000/svg">
<path d="M10.8001 2.3999C10.4818 2.3999 10.1766 2.52633 9.95157 2.75137C9.72653 2.97642 9.6001 3.28164 9.6001 3.5999C9.6001 3.91816 9.72653 4.22339 9.95157 4.44843C10.1766 4.67347 10.4818 4.7999 10.8001 4.7999H13.2001C13.5184 4.7999 13.8236 4.67347 14.0486 4.44843C14.2737 4.22339 14.4001 3.91816 14.4001 3.5999C14.4001 3.28164 14.2737 2.97642 14.0486 2.75137C13.8236 2.52633 13.5184 2.3999 13.2001 2.3999H10.8001Z" fill="#CDD2DB"/>
<path fill-rule="evenodd" clip-rule="evenodd" d="M4.80029 6.0001C4.80029 5.36358 5.05315 4.75313 5.50324 4.30304C5.95332 3.85295 6.56377 3.6001 7.20029 3.6001C7.20029 4.55488 7.57958 5.47055 8.25471 6.14568C8.92984 6.82081 9.84551 7.2001 10.8003 7.2001H13.2003C14.1551 7.2001 15.0707 6.82081 15.7459 6.14568C16.421 5.47055 16.8003 4.55488 16.8003 3.6001C17.4368 3.6001 18.0473 3.85295 18.4974 4.30304C18.9474 4.75313 19.2003 5.36358 19.2003 6.0001V19.2001C19.2003 19.8366 18.9474 20.4471 18.4974 20.8972C18.0473 21.3472 17.4368 21.6001 16.8003 21.6001H7.20029C6.56377 21.6001 5.95332 21.3472 5.50324 20.8972C5.05315 20.4471 4.80029 19.8366 4.80029 19.2001V6.0001ZM8.40029 10.8001C8.08203 10.8001 7.77681 10.9265 7.55177 11.1516C7.32672 11.3766 7.20029 11.6818 7.20029 12.0001C7.20029 12.3184 7.32672 12.6236 7.55177 12.8486C7.77681 13.0737 8.08203 13.2001 8.40029 13.2001H8.41229C8.73055 13.2001 9.03578 13.0737 9.26082 12.8486C9.48587 12.6236 9.61229 12.3184 9.61229 12.0001C9.61229 11.6818 9.48587 11.3766 9.26082 11.1516C9.03578 10.9265 8.73055 10.8001 8.41229 10.8001H8.40029ZM12.0003 10.8001C11.682 10.8001 11.3768 10.9265 11.1518 11.1516C10.9267 11.3766 10.8003 11.6818 10.8003 12.0001C10.8003 12.3184 10.9267 12.6236 11.1518 12.8486C11.3768 13.0737 11.682 13.2001 12.0003 13.2001H15.6003C15.9186 13.2001 16.2238 13.0737 16.4488 12.8486C16.6739 12.6236 16.8003 12.3184 16.8003 12.0001C16.8003 11.6818 16.6739 11.3766 16.4488 11.1516C16.2238 10.9265 15.9186 10.8001 15.6003 10.8001H12.0003ZM8.40029 15.6001C8.08203 15.6001 7.77681 15.7265 7.55177 15.9516C7.32672 16.1766 7.20029 16.4818 7.20029 16.8001C7.20029 17.1184 7.32672 17.4236 7.55177 17.6486C7.77681 17.8737 8.08203 18.0001 8.40029 18.0001H8.41229C8.73055 18.0001 9.03578 17.8737 9.26082 17.6486C9.48587 17.4236 9.61229 17.1184 9.61229 16.8001C9.61229 16.4818 9.48587 16.1766 9.26082 15.9516C9.03578 15.7265 8.73055 15.6001 8.41229 15.6001H8.40029ZM12.0003 15.6001C11.682 15.6001 11.3768 15.7265 11.1518 15.9516C10.9267 16.1766 10.8003 16.4818 10.8003 16.8001C10.8003 17.1184 10.9267 17.4236 11.1518 17.6486C11.3768 17.8737 11.682 18.0001 12.0003 18.0001H15.6003C15.9186 18.0001 16.2238 17.8737 16.4488 17.6486C16.6739 17.4236 16.8003 17.1184 16.8003 16.8001C16.8003 16.4818 16.6739 16.1766 16.4488 15.9516C16.2238 15.7265 15.9186 15.6001 15.6003 15.6001H12.0003Z" fill="#CDD2DB"/>
</svg>
