<svg width="12" height="12" viewBox="0 0 12 12" fill="none" xmlns="http://www.w3.org/2000/svg">
<path d="M10.5001 7L9.00006 5.5H5.50006C5.36745 5.5 5.24028 5.44732 5.14651 5.35355C5.05274 5.25978 5.00006 5.13261 5.00006 5V2C5.00006 1.86739 5.05274 1.74021 5.14651 1.64645C5.24028 1.55268 5.36745 1.5 5.50006 1.5H10.0001C10.1327 1.5 10.2598 1.55268 10.3536 1.64645C10.4474 1.74021 10.5001 1.86739 10.5001 2V7Z" stroke="white" stroke-width="1.5" stroke-linecap="round" stroke-linejoin="round"/>
<path d="M7 7.5V8.5C7 8.63261 6.94732 8.75979 6.85355 8.85355C6.75978 8.94732 6.63261 9 6.5 9H3L1.5 10.5V5.5C1.5 5.36739 1.55268 5.24021 1.64645 5.14645C1.74021 5.05268 1.86739 5 2 5H3" stroke="white" stroke-width="1.5" stroke-linecap="round" stroke-linejoin="round"/>
</svg>
