<svg width="20" height="20" viewBox="0 0 20 20" fill="none" xmlns="http://www.w3.org/2000/svg">
<path d="M8.09 15.2867V15.5909C8.09 16.6451 8.945 17.5001 10 17.5001V17.5001C11.055 17.5001 11.91 16.6451 11.91 15.5901V15.2859" stroke="#EA2D1F" stroke-width="1.5" stroke-linecap="round" stroke-linejoin="round"/>
<path d="M11.5275 4.7925V4.0275C11.5275 3.18417 10.8442 2.5 10 2.5V2.5C9.15584 2.5 8.4725 3.18417 8.4725 4.0275V4.7925" stroke="#EA2D1F" stroke-width="1.5" stroke-linecap="round" stroke-linejoin="round"/>
<path fill-rule="evenodd" clip-rule="evenodd" d="M5.46918 8.48994V8.48994C5.46918 6.40411 7.16001 4.71411 9.24501 4.71411H10.7558C12.8417 4.71411 14.5317 6.40494 14.5317 8.48994V8.48994V10.8208C14.5317 11.2624 14.7075 11.6866 15.02 11.9991L15.5542 12.5333C15.8667 12.8458 16.0425 13.2699 16.0425 13.7116V13.7116C16.0425 14.5816 15.3375 15.2866 14.4675 15.2866H5.53334C4.66334 15.2866 3.95834 14.5816 3.95834 13.7116V13.7116C3.95834 13.2699 4.13418 12.8458 4.44668 12.5333L4.98084 11.9991C5.29334 11.6866 5.46918 11.2624 5.46918 10.8208V8.48994Z" stroke="#505053" stroke-width="1.5" stroke-linecap="round" stroke-linejoin="round"/>
</svg>
