<svg width="12" height="12" viewBox="0 0 12 12" fill="none" xmlns="http://www.w3.org/2000/svg">
<path d="M8 1.99988H9C9.26522 1.99988 9.51957 2.10523 9.70711 2.29277C9.89464 2.48031 10 2.73466 10 2.99988V9.99988C10 10.2651 9.89464 10.5194 9.70711 10.707C9.51957 10.8945 9.26522 10.9999 9 10.9999H3C2.73478 10.9999 2.48043 10.8945 2.29289 10.707C2.10536 10.5194 2 10.2651 2 9.99988V2.99988C2 2.73466 2.10536 2.48031 2.29289 2.29277C2.48043 2.10523 2.73478 1.99988 3 1.99988H4" stroke="white" stroke-width="1.5" stroke-linecap="round" stroke-linejoin="round"/>
<path d="M7.5 1.00012H4.5C4.22386 1.00012 4 1.22398 4 1.50012V2.50012C4 2.77626 4.22386 3.00012 4.5 3.00012H7.5C7.77614 3.00012 8 2.77626 8 2.50012V1.50012C8 1.22398 7.77614 1.00012 7.5 1.00012Z" stroke="white" stroke-width="1.5" stroke-linecap="round" stroke-linejoin="round"/>
</svg>
