<svg width="38" height="38" viewBox="0 0 38 38" fill="none" xmlns="http://www.w3.org/2000/svg">
<path d="M15.3711 29.045V29.623C15.3711 31.6259 16.9956 33.2504 19.0001 33.2504V33.2504C21.0046 33.2504 22.6291 31.6259 22.6291 29.6214V29.0435" stroke="#505053" stroke-width="2.5" stroke-linecap="round" stroke-linejoin="round"/>
<path d="M21.9023 9.10575V7.65225C21.9023 6.04992 20.6039 4.75 19 4.75V4.75C17.3961 4.75 16.0978 6.04992 16.0978 7.65225V9.10575" stroke="#505053" stroke-width="2.5" stroke-linecap="round" stroke-linejoin="round"/>
<path fill-rule="evenodd" clip-rule="evenodd" d="M10.3915 16.1306V16.1306C10.3915 12.1675 13.604 8.95654 17.5655 8.95654H20.4361C24.3992 8.95654 27.6102 12.1691 27.6102 16.1306V16.1306V20.5592C27.6102 21.3984 27.9443 22.2043 28.538 22.798L29.553 23.813C30.1467 24.4067 30.4808 25.2126 30.4808 26.0518V26.0518C30.4808 27.7048 29.1413 29.0443 27.4883 29.0443H10.5134C8.86037 29.0443 7.52087 27.7048 7.52087 26.0518V26.0518C7.52087 25.2126 7.85496 24.4067 8.44871 23.813L9.46362 22.798C10.0574 22.2043 10.3915 21.3984 10.3915 20.5592V16.1306Z" stroke="#505053" stroke-width="2.5" stroke-linecap="round" stroke-linejoin="round"/>
</svg>
