<svg width="24" height="24" viewBox="0 0 24 24" fill="none" xmlns="http://www.w3.org/2000/svg">
<path d="M6.24023 5.78664H17.7602" stroke="#A60D02" stroke-width="1.5" stroke-linecap="round" stroke-linejoin="round"/>
<path fill-rule="evenodd" clip-rule="evenodd" d="M18.9229 8.66797H5.07779C4.12931 8.66797 3.36035 9.43693 3.36035 10.3854V10.3854C3.36035 10.9547 3.64259 11.4875 4.11395 11.8072L9.83267 15.6827C11.1421 16.5697 12.8596 16.5697 14.169 15.6827L19.8858 11.8081C20.3581 11.4884 20.6404 10.9556 20.6404 10.3864V10.3854C20.6404 9.43693 19.8714 8.66797 18.9229 8.66797V8.66797Z" stroke="#A60D02" stroke-width="1.5" stroke-linecap="round" stroke-linejoin="round"/>
<path d="M8.61156 14.9375L3.92676 19.6223" stroke="#A60D02" stroke-width="1.5" stroke-linecap="round" stroke-linejoin="round"/>
<path d="M15.3896 14.9375L20.0744 19.6223" stroke="#A60D02" stroke-width="1.5" stroke-linecap="round" stroke-linejoin="round"/>
<path d="M3.36035 10.4004V18.2676C3.36035 19.3284 4.21955 20.1876 5.28035 20.1876H18.7204C19.7812 20.1876 20.6404 19.3284 20.6404 18.2676V10.4004" stroke="#A60D02" stroke-width="1.5" stroke-linecap="round" stroke-linejoin="round"/>
<path d="M8.16016 2.90773H15.8402" stroke="#A60D02" stroke-width="1.5" stroke-linecap="round" stroke-linejoin="round"/>
</svg>
