<svg width="18" height="18" viewBox="0 0 18 18" fill="none" xmlns="http://www.w3.org/2000/svg">
<path d="M11.7975 2.25H6.2025L2.25 6.2025V11.7975L6.2025 15.75H11.7975L15.75 11.7975V6.2025L11.7975 2.25ZM14.25 11.175L11.175 14.25H6.825L3.75 11.175V6.825L6.825 3.75H11.175L14.25 6.825V11.175Z" fill="#505053"/>
<path d="M9 12.75C9.41421 12.75 9.75 12.4142 9.75 12C9.75 11.5858 9.41421 11.25 9 11.25C8.58579 11.25 8.25 11.5858 8.25 12C8.25 12.4142 8.58579 12.75 9 12.75Z" fill="#505053"/>
<path d="M8.25 5.25H9.75V10.5H8.25V5.25Z" fill="#505053"/>
</svg>
