<svg width="16" height="17" viewBox="0 0 16 17" fill="none" xmlns="http://www.w3.org/2000/svg">
<path d="M7.33317 12.4998C7.33317 13.2332 6.73317 13.8332 5.99984 13.8332C5.2665 13.8332 4.6665 13.2332 4.6665 12.4998C4.6665 11.7665 5.2665 11.1665 5.99984 11.1665C6.73317 11.1665 7.33317 11.7665 7.33317 12.4998ZM5.99984 7.1665C5.2665 7.1665 4.6665 7.7665 4.6665 8.49984C4.6665 9.23317 5.2665 9.83317 5.99984 9.83317C6.73317 9.83317 7.33317 9.23317 7.33317 8.49984C7.33317 7.7665 6.73317 7.1665 5.99984 7.1665ZM5.99984 3.1665C5.2665 3.1665 4.6665 3.7665 4.6665 4.49984C4.6665 5.23317 5.2665 5.83317 5.99984 5.83317C6.73317 5.83317 7.33317 5.23317 7.33317 4.49984C7.33317 3.7665 6.73317 3.1665 5.99984 3.1665ZM9.99984 5.83317C10.7332 5.83317 11.3332 5.23317 11.3332 4.49984C11.3332 3.7665 10.7332 3.1665 9.99984 3.1665C9.2665 3.1665 8.6665 3.7665 8.6665 4.49984C8.6665 5.23317 9.2665 5.83317 9.99984 5.83317ZM9.99984 7.1665C9.2665 7.1665 8.6665 7.7665 8.6665 8.49984C8.6665 9.23317 9.2665 9.83317 9.99984 9.83317C10.7332 9.83317 11.3332 9.23317 11.3332 8.49984C11.3332 7.7665 10.7332 7.1665 9.99984 7.1665ZM9.99984 11.1665C9.2665 11.1665 8.6665 11.7665 8.6665 12.4998C8.6665 13.2332 9.2665 13.8332 9.99984 13.8332C10.7332 13.8332 11.3332 13.2332 11.3332 12.4998C11.3332 11.7665 10.7332 11.1665 9.99984 11.1665Z" fill="#8C8C8C"/>
</svg>
