<svg width="123" height="66" viewBox="0 0 123 66" fill="none" xmlns="http://www.w3.org/2000/svg">
<path d="M28.259 9.15989C28.204 9.20036 28.1156 9.22087 27.994 9.22141C27.8855 9.21441 27.7856 9.15452 27.6943 9.04172C27.6285 8.95782 27.5471 8.86977 27.4504 8.77758C27.3564 8.67509 27.2507 8.57499 27.1333 8.47728C27.0159 8.37957 26.8958 8.29217 26.7729 8.21507C26.65 8.13796 26.5267 8.08285 26.4031 8.04972C26.2485 8.00831 26.074 8.0002 25.8795 8.02539C25.6953 8.05334 25.5235 8.11772 25.364 8.21853C25.058 8.41262 24.9028 8.64158 24.8983 8.90542C24.9069 9.16172 25.0279 9.43155 25.2612 9.71492C25.4107 9.89855 25.5744 10.0915 25.7521 10.2937C25.9326 10.4856 26.1079 10.6762 26.2781 10.8653C26.4586 11.0572 26.625 11.2399 26.7773 11.4132C26.9399 11.5893 27.0809 11.743 27.2003 11.8744C27.3527 12.0477 27.4919 12.2286 27.6181 12.417C27.7443 12.6054 27.8444 12.8089 27.9183 13.0275C27.9951 13.2358 28.0391 13.4629 28.0505 13.7089C28.0619 13.9549 28.0289 14.2222 27.9516 14.5107C27.7277 15.058 27.3795 15.4506 26.9072 15.6885C26.4479 15.9188 25.9586 16.0141 25.4392 15.9743C24.9844 15.9407 24.5609 15.8107 24.1689 15.5842C23.7871 15.3604 23.4948 15.0502 23.2919 14.6535C23.2418 14.5518 23.2104 14.4219 23.1975 14.2638C23.1846 14.1058 23.2071 14.0013 23.2649 13.9506C23.3515 13.8744 23.4763 13.8416 23.6391 13.8521C23.8047 13.8523 23.9218 13.8892 23.9904 13.9628C24.1694 14.2426 24.4048 14.4769 24.6966 14.6655C24.9912 14.8438 25.3247 14.9387 25.6971 14.9501C25.9815 14.9601 26.2282 14.9047 26.4373 14.784C26.649 14.6531 26.8045 14.4849 26.9037 14.2796C27.016 14.0667 27.0472 13.8266 26.9973 13.5593C26.9606 13.2844 26.8293 13.0118 26.6036 12.7415C26.2667 12.3089 25.8935 11.8886 25.4837 11.4807C25.0843 11.0755 24.6857 10.6264 24.2877 10.1332C24.106 9.86366 23.9916 9.59006 23.9445 9.31242C23.9077 9.03753 23.9211 8.7816 23.9846 8.54463C24.0508 8.29735 24.1645 8.07933 24.3255 7.89057C24.4892 7.69151 24.6873 7.52925 24.9197 7.40379C25.1549 7.26802 25.4112 7.1766 25.6889 7.12952C25.9665 7.08245 26.2575 7.08863 26.5618 7.14809C26.9795 7.23791 27.3527 7.43178 27.6815 7.72969C28.013 8.01729 28.26 8.33194 28.4224 8.67362C28.4573 8.74924 28.4572 8.83204 28.4221 8.92201C28.3973 9.01474 28.3429 9.09403 28.259 9.15989ZM34.3236 11.7125C34.2875 12.012 34.2356 12.3294 34.1678 12.6646C34.1132 12.9923 34.0468 13.3224 33.9688 13.6549C33.901 13.9901 33.8258 14.3122 33.7429 14.6213C33.6601 14.9304 33.5804 15.2072 33.5039 15.4518C33.7728 15.7668 33.9147 16.0201 33.9296 16.2119C33.9548 16.4063 33.9237 16.5636 33.8363 16.6838C33.7248 16.8527 33.5852 16.9202 33.4176 16.8863C33.2631 16.8449 33.098 16.7399 32.9223 16.5714C32.7504 16.6358 32.5552 16.7049 32.3366 16.7789C32.1208 16.8425 31.8946 16.9034 31.6582 16.9615C31.4245 17.0093 31.1936 17.0468 30.9655 17.0741C30.7373 17.1013 30.5315 17.1069 30.3481 17.0908C30.0046 17.054 29.7224 16.9121 29.5014 16.6652C29.2908 16.421 29.186 16.1114 29.1871 15.7362C29.1888 15.4827 29.2382 15.2364 29.3354 14.9974C29.4353 14.7481 29.5775 14.5267 29.7619 14.3331C29.949 14.1293 30.1704 13.9623 30.4262 13.832C30.6923 13.7045 30.9833 13.6279 31.2994 13.6022C31.3798 13.5906 31.4846 13.5911 31.6138 13.6036C31.7533 13.6189 31.8886 13.6496 32.0198 13.6958C32.164 13.7345 32.3013 13.7989 32.4318 13.889C32.5622 13.9792 32.6727 14.1027 32.7632 14.2594C32.8101 14.0843 32.8561 13.8923 32.901 13.6835C32.959 13.4671 33.0118 13.2494 33.0595 13.0302C33.1071 12.8111 33.1455 12.606 33.1746 12.4151C33.2167 12.2165 33.2455 12.0476 33.2607 11.9081C33.2815 11.748 33.2446 11.6387 33.1498 11.5802C33.0681 11.5141 32.9483 11.4876 32.7902 11.5004C32.5209 11.5166 32.1896 11.599 31.7964 11.7476C31.4032 11.8962 31.0213 12.0645 30.6507 12.2523C30.5331 12.3202 30.4139 12.3324 30.293 12.289C30.1825 12.2483 30.097 12.1757 30.0367 12.0712C29.9763 11.9667 29.9548 11.8615 29.9721 11.7557C29.9922 11.6396 30.0651 11.5322 30.191 11.4334C30.4158 11.2949 30.6627 11.1567 30.9315 11.0189C31.2003 10.8812 31.4739 10.7667 31.7523 10.6757C32.0335 10.5743 32.3115 10.5053 32.5864 10.4685C32.8612 10.4317 33.1237 10.4413 33.3737 10.4973C33.7371 10.5836 33.9932 10.7405 34.142 10.9682C34.2936 11.1855 34.3541 11.4336 34.3236 11.7125ZM31.6405 14.5549C31.4983 14.5499 31.3361 14.5783 31.1539 14.6399C30.9848 14.694 30.8191 14.7766 30.6568 14.8877C30.5076 14.9912 30.3786 15.1223 30.2699 15.2809C30.1742 15.432 30.13 15.5968 30.1374 15.7755C30.1414 15.8428 30.1702 15.9002 30.2237 15.9477C30.2876 15.9979 30.3635 16.0238 30.4514 16.0253C30.7125 16.04 31.0169 16.0167 31.3647 15.9552C31.7255 15.8863 32.0221 15.7891 32.2545 15.6636C32.271 15.6018 32.2608 15.5162 32.2238 15.4069C32.1896 15.2873 32.1437 15.1701 32.0862 15.0553C32.0313 14.9302 31.9621 14.8178 31.8784 14.718C31.805 14.6211 31.7257 14.5667 31.6405 14.5549ZM41.5023 13.752C41.2629 13.986 41.0249 14.2149 40.7883 14.4386C40.5517 14.6623 40.2885 14.9231 39.9989 15.2209C39.7223 15.5112 39.3997 15.8499 39.0309 16.237C38.6622 16.6241 38.226 17.098 37.7224 17.6588C37.5985 17.7913 37.483 17.8928 37.3757 17.9635C37.2684 18.0341 37.1581 18.0542 37.0448 18.0239C36.8903 17.9825 36.7777 17.9081 36.707 17.8008C36.6494 17.686 36.6035 17.5688 36.5693 17.4492C36.3812 16.7914 36.2147 16.0732 36.07 15.2946C35.9252 14.5159 35.8382 13.7693 35.8088 13.0546C35.802 12.9976 35.8172 12.9409 35.8544 12.8846C35.9046 12.8208 35.9582 12.7855 36.0153 12.7787C36.1321 12.7548 36.2674 12.7855 36.4212 12.8709C36.5311 12.9555 36.6299 13.0814 36.7176 13.2485C36.8054 13.4155 36.866 13.5809 36.8994 13.7444C36.9226 13.9052 36.9506 14.0894 36.9833 14.297C37.016 14.5045 37.0498 14.7289 37.0845 14.9701C37.1323 15.2038 37.1802 15.4374 37.228 15.6711C37.2758 15.9048 37.3291 16.1178 37.388 16.3103C37.646 16.0481 37.9198 15.7681 38.2094 15.4703C38.5121 15.1649 38.8148 14.8595 39.1175 14.5541C39.4229 14.2384 39.7242 13.9381 40.0214 13.6533C40.3289 13.3713 40.6215 13.124 40.8994 12.9113C40.9702 12.853 41.0534 12.8311 41.1489 12.8456C41.2444 12.8602 41.3377 12.9238 41.429 13.0366C41.6341 13.3014 41.6586 13.5399 41.5023 13.752ZM46.0615 17.0939C45.5962 17.2232 45.1137 17.2927 44.6142 17.3024C44.1174 17.3018 43.6012 17.2297 43.0654 17.0862C42.9894 17.4523 43.0151 17.7684 43.1426 18.0344C43.2728 18.2902 43.4715 18.476 43.7387 18.5917C43.898 18.6565 44.0642 18.6955 44.2374 18.7088C44.4208 18.7248 44.5929 18.7212 44.7537 18.6981C44.9276 18.6673 45.0874 18.6273 45.2331 18.578C45.3789 18.5287 45.5091 18.4753 45.6239 18.4177C45.7388 18.3601 45.8504 18.3349 45.959 18.3419C46.0703 18.3386 46.149 18.3541 46.195 18.3885C46.3254 18.4787 46.3355 18.647 46.2253 18.8936C45.9721 19.1791 45.6592 19.399 45.2866 19.5531C44.9168 19.697 44.5329 19.7487 44.1352 19.7084C43.7889 19.6819 43.453 19.5753 43.1276 19.3887C42.8021 19.2021 42.5362 18.9376 42.3298 18.5952C42.1563 18.2947 42.0505 17.9682 42.0125 17.6157C41.9744 17.2632 41.9855 16.9127 42.0457 16.5645C42.1003 16.2368 42.2075 15.9397 42.3673 15.6733C42.5373 15.4097 42.744 15.1945 42.9875 15.0279C43.2337 14.8509 43.5152 14.7275 43.832 14.6578C44.1488 14.5881 44.4955 14.5927 44.8719 14.6714C45.3232 14.7592 45.703 14.9493 46.0111 15.2417C46.3193 15.5341 46.4986 15.8748 46.5489 16.2637C46.5789 16.4816 46.554 16.6571 46.4741 16.7903C46.4045 16.9263 46.267 17.0275 46.0615 17.0939ZM44.5658 15.5667C44.4572 15.5597 44.3342 15.5654 44.1968 15.5838C44.0696 15.6049 43.9435 15.6429 43.8184 15.6977C43.7063 15.745 43.5953 15.8091 43.4853 15.8901C43.3883 15.9635 43.3181 16.0606 43.2747 16.1815C43.4498 16.2284 43.6446 16.264 43.8589 16.2884C44.0836 16.3154 44.2993 16.3346 44.5061 16.3458C44.726 16.3495 44.9266 16.3425 45.108 16.3249C45.2997 16.31 45.4619 16.2817 45.5946 16.2399C45.5646 16.0221 45.4418 15.8622 45.2262 15.7602C45.0236 15.6507 44.8035 15.5862 44.5658 15.5667ZM53.9811 17.7583C53.9473 17.9259 53.9075 18.1361 53.8619 18.3889C53.8293 18.6341 53.7925 18.8948 53.7517 19.171C53.7136 19.4369 53.6755 19.7027 53.6373 19.9686C53.6095 20.2372 53.5821 20.4839 53.555 20.7085C53.7291 20.5122 53.9427 20.2713 54.1959 19.9858C54.4491 19.7002 54.7033 19.4315 54.9586 19.1797C55.2268 18.9203 55.4813 18.7124 55.722 18.556C55.9757 18.3921 56.1799 18.3308 56.3344 18.3723C56.4993 18.4164 56.6266 18.5389 56.7163 18.7396C56.8192 18.9328 56.8917 19.1566 56.934 19.4108C56.9763 19.6651 56.999 19.9307 57.0021 20.2076C57.0155 20.4873 57.0218 20.7319 57.0208 20.9415C57.0979 20.8186 57.1895 20.683 57.2955 20.5347C57.4145 20.3788 57.5336 20.223 57.6526 20.0672C57.7848 19.9038 57.9207 19.747 58.0603 19.5967C58.2103 19.4491 58.3599 19.3236 58.5091 19.22C58.6817 19.1116 58.8535 19.0473 59.0247 19.0268C59.1985 18.9961 59.3215 18.9904 59.3936 19.0098C59.4864 19.0346 59.5863 19.0945 59.6934 19.1895C59.8135 19.2769 59.9281 19.3849 60.0372 19.5135C60.1463 19.6421 60.2396 19.7886 60.317 19.9529C60.4075 20.1097 60.4709 20.2647 60.5071 20.4179C60.5768 20.7348 60.6087 21.0691 60.6028 21.4209C60.6072 21.7754 60.59 22.1076 60.5511 22.4175C60.5123 22.7273 60.4662 23.0021 60.413 23.2418C60.3729 23.474 60.3456 23.6378 60.331 23.7333C60.2952 23.8673 60.2521 23.9662 60.2019 24.03C60.1544 24.0835 60.0839 24.1199 59.9904 24.139C59.8633 24.1601 59.7599 24.1545 59.6802 24.1221C59.6033 24.0794 59.546 24.0254 59.5083 23.9601C59.4706 23.8948 59.4446 23.8271 59.4302 23.757C59.4186 23.6766 59.4146 23.6092 59.4181 23.555C59.4507 23.3097 59.4795 23.0579 59.5045 22.7996C59.5399 22.544 59.5673 22.2974 59.5869 22.0597C59.6091 21.8117 59.6156 21.5815 59.6062 21.3692C59.6099 21.1493 59.6016 20.9538 59.5812 20.7827C59.5716 20.736 59.5493 20.6748 59.5144 20.5992C59.4925 20.516 59.4589 20.4352 59.4137 20.3569C59.3787 20.2812 59.341 20.2159 59.3005 20.1609C59.2601 20.1059 59.2309 20.0705 59.2131 20.0546C59.11 20.027 58.9756 20.0959 58.8098 20.2613C58.6468 20.4164 58.4779 20.6141 58.3031 20.8544C58.1283 21.0946 57.9545 21.3517 57.7817 21.6257C57.6219 21.8921 57.4939 22.1228 57.3974 22.3178C57.3257 22.5857 57.2203 22.7728 57.0814 22.8792C56.9452 22.9752 56.8205 23.008 56.7071 22.9776C56.5938 22.9473 56.4812 22.8729 56.3694 22.7546C56.2706 22.6288 56.2157 22.5036 56.2049 22.3793C56.1873 22.1979 56.17 21.9945 56.1531 21.7691C56.1362 21.5437 56.1155 21.3118 56.091 21.0733C56.0769 20.8376 56.0562 20.6057 56.029 20.3775C56.0121 20.1521 55.9897 19.9474 55.9617 19.7632C55.765 19.9203 55.5628 20.098 55.355 20.2963C55.1576 20.4974 54.9588 20.7037 54.7586 20.915C54.5687 21.1292 54.3788 21.3433 54.1889 21.5575C54.0121 21.7641 53.8473 21.9463 53.6946 22.1042C53.5921 22.1982 53.4872 22.2805 53.3799 22.3512C53.2754 22.4115 53.1665 22.4265 53.0531 22.3961C52.9707 22.374 52.8928 22.3145 52.8194 22.2175C52.7488 22.1103 52.6874 21.9889 52.6354 21.8535C52.5833 21.7181 52.5405 21.5686 52.5071 21.405C52.4839 21.2442 52.4762 21.0875 52.4839 20.935C52.5202 20.4699 52.5778 19.9663 52.6568 19.4243C52.7489 18.8747 52.8368 18.3406 52.9205 17.8219C52.9571 17.644 53.0205 17.4898 53.1107 17.3594C53.2139 17.2214 53.3549 17.1487 53.5335 17.1414C53.717 17.1574 53.844 17.2191 53.9147 17.3263C53.9853 17.4336 54.0075 17.5776 53.9811 17.7583ZM66.6241 20.7153C66.9028 20.9114 67.1149 21.1504 67.2602 21.4323C67.4158 21.717 67.5117 22.0187 67.5477 22.3376C67.5865 22.6461 67.571 22.9512 67.5012 23.2527C67.4418 23.5571 67.3363 23.827 67.1849 24.0625C66.9943 24.3206 66.7741 24.5653 66.5244 24.7965C66.2747 25.0278 66.0075 25.2212 65.7229 25.3768C65.4382 25.5325 65.1337 25.6386 64.8093 25.6953C64.485 25.7519 64.1476 25.7333 63.7973 25.6394C63.3749 25.5262 63.0457 25.3331 62.8096 25.06C62.5736 24.787 62.4145 24.4738 62.3325 24.1205C62.2505 23.7673 62.2362 23.388 62.2896 22.9827C62.3533 22.5801 62.4685 22.1913 62.6352 21.8164C62.7537 21.5389 62.8952 21.2787 63.0597 21.0356C63.2373 20.7851 63.431 20.5775 63.6407 20.4128C63.8533 20.2378 64.0753 20.1096 64.307 20.0281C64.5489 19.9494 64.7987 19.9446 65.0563 20.0136C65.2005 20.0522 65.3726 20.1314 65.5724 20.2512C65.7749 20.3607 65.9551 20.4918 66.113 20.6446C66.2801 20.5568 66.4504 20.5804 66.6241 20.7153ZM65.7345 21.6861C65.6405 21.5836 65.5314 21.455 65.4072 21.3002C65.2961 21.138 65.1839 21.0416 65.0706 21.0113C64.9469 20.9781 64.8081 21.0017 64.6541 21.0819C64.5104 21.1648 64.3715 21.2712 64.2373 21.4009C64.1162 21.523 64.0041 21.6531 63.9009 21.7911C63.7976 21.9291 63.7233 22.0417 63.6778 22.1289C63.6055 22.2751 63.5352 22.4551 63.4669 22.6687C63.3987 22.8823 63.3561 23.1028 63.3394 23.3302C63.3254 23.5473 63.3516 23.7586 63.418 23.9642C63.4974 24.1621 63.646 24.3289 63.8637 24.4646C63.9969 24.5444 64.1669 24.59 64.3737 24.6012C64.5832 24.6022 64.7973 24.5656 65.0159 24.4917C65.2448 24.4205 65.4693 24.304 65.6893 24.1421C65.9197 23.983 66.1171 23.7819 66.2816 23.5388C66.4647 23.2676 66.5476 22.9586 66.5301 22.6115C66.5257 22.257 66.3935 21.9676 66.1333 21.7433C66.0474 21.7755 65.9684 21.7819 65.8962 21.7626C65.8241 21.7432 65.7702 21.7177 65.7345 21.6861ZM74.2314 22.8199C74.0183 22.8732 73.7935 22.9289 73.5571 22.9871C73.331 23.0479 73.0942 23.1281 72.8467 23.2274C72.6123 23.3192 72.3747 23.4433 72.1341 23.5996C71.9065 23.7485 71.6833 23.9426 71.4645 24.1822C71.1535 24.5185 70.9068 24.883 70.7242 25.2758C70.5444 25.6583 70.3918 26.0426 70.2662 26.4286C70.2165 26.614 70.1191 26.7922 69.9739 26.9631C69.8418 27.1265 69.6985 27.1875 69.5439 27.1461C69.3482 27.0936 69.2147 26.953 69.1435 26.7241C69.0854 26.4876 69.0606 26.2712 69.069 26.0747C69.0899 25.2962 69.1389 24.5363 69.2161 23.795C69.296 23.0435 69.39 22.3012 69.498 21.5681C69.5367 21.4239 69.6027 21.3422 69.6962 21.3231C69.8 21.3067 69.9072 21.3189 70.0177 21.3595C70.1386 21.403 70.2488 21.4656 70.3484 21.5475C70.4479 21.6294 70.4928 21.7298 70.483 21.8486C70.4221 22.2409 70.3659 22.6565 70.3145 23.0955C70.2659 23.5242 70.2325 23.8962 70.2143 24.2116C70.3493 23.8723 70.5538 23.5627 70.8276 23.2827C71.1014 23.0027 71.4081 22.7646 71.7478 22.5685C72.0978 22.3752 72.4676 22.2313 72.8573 22.137C73.2573 22.0454 73.6459 22.017 74.0231 22.0518C74.1831 22.0726 74.3119 22.1071 74.4094 22.1553C74.5069 22.2035 74.5694 22.2589 74.5968 22.3215C74.6242 22.384 74.6073 22.4678 74.546 22.5729C74.495 22.6807 74.3901 22.763 74.2314 22.8199ZM78.7581 25.8549C78.2928 25.9842 77.8103 26.0537 77.3108 26.0634C76.814 26.0628 76.2977 25.9907 75.762 25.8472C75.686 26.2133 75.7117 26.5294 75.8392 26.7955C75.9694 27.0512 76.1681 27.237 76.4353 27.3527C76.5946 27.4175 76.7608 27.4565 76.934 27.4698C77.1174 27.4858 77.2895 27.4822 77.4503 27.4591C77.6242 27.4284 77.784 27.3884 77.9297 27.3391C78.0754 27.2898 78.2057 27.2363 78.3205 27.1788C78.4353 27.1212 78.547 27.0959 78.6556 27.1029C78.7669 27.0996 78.8455 27.1151 78.8915 27.1495C79.022 27.2397 79.0321 27.4081 78.9219 27.6546C78.6687 27.9401 78.3558 28.16 77.9832 28.3141C77.6133 28.458 77.2295 28.5097 76.8318 28.4694C76.4855 28.4429 76.1496 28.3363 75.8242 28.1497C75.4987 27.9631 75.2328 27.6986 75.0264 27.3562C74.8529 27.0557 74.7471 26.7292 74.7091 26.3767C74.671 26.0242 74.6821 25.6738 74.7423 25.3255C74.7969 24.9978 74.9041 24.7008 75.0639 24.4344C75.2339 24.1707 75.4406 23.9556 75.6841 23.7889C75.9302 23.6119 76.2118 23.4886 76.5286 23.4189C76.8454 23.3491 77.1921 23.3537 77.5685 23.4325C78.0198 23.5203 78.3996 23.7104 78.7077 24.0027C79.0159 24.2951 79.1952 24.6358 79.2455 25.0248C79.2755 25.2426 79.2506 25.4181 79.1707 25.5513C79.1011 25.6873 78.9636 25.7885 78.7581 25.8549ZM77.2624 24.3277C77.1538 24.3207 77.0308 24.3264 76.8934 24.3448C76.7662 24.366 76.6401 24.4039 76.515 24.4588C76.4029 24.506 76.2919 24.5702 76.1819 24.6511C76.0849 24.7245 76.0147 24.8216 75.9713 24.9425C76.1464 24.9895 76.3412 25.0251 76.5555 25.0494C76.7802 25.0764 76.9959 25.0956 77.2027 25.1068C77.4226 25.1105 77.6232 25.1036 77.8046 25.0859C77.9963 25.071 78.1585 25.0427 78.2912 25.001C78.2612 24.7831 78.1384 24.6232 77.9228 24.5213C77.7202 24.4118 77.5001 24.3473 77.2624 24.3277ZM90.5083 27.6782C90.3901 28.2429 90.2706 28.8127 90.1496 29.3876C90.039 29.9653 89.8989 30.5296 89.7292 31.0805C89.5622 31.621 89.362 32.1416 89.1285 32.6422C88.9053 33.1456 88.6257 33.6118 88.2899 34.0408C87.9569 34.4596 87.56 34.8281 87.0992 35.1463C86.6488 35.4674 86.1167 35.7223 85.5029 35.9112C85.4066 35.9407 85.3056 35.9467 85.1998 35.9294C85.1043 35.9149 85.013 35.8849 84.9258 35.8394C84.8358 35.8043 84.7603 35.7564 84.6992 35.6959C84.6354 35.6457 84.6014 35.5869 84.5974 35.5195C84.5913 35.4185 84.6344 35.3196 84.7266 35.2229C84.8188 35.1261 84.9536 35.0352 85.1309 34.9502C85.6754 34.7317 86.1532 34.4732 86.5645 34.1748C86.9757 33.8764 87.3334 33.5306 87.6376 33.1372C87.9417 32.7439 88.1886 32.2965 88.3782 31.7952C88.5808 31.2863 88.734 30.7144 88.8378 30.0797C88.6728 30.2011 88.4857 30.3221 88.2767 30.4428C88.0677 30.5635 87.8525 30.666 87.6312 30.7502C87.4126 30.8242 87.193 30.8813 86.9724 30.9215C86.7545 30.9515 86.558 30.943 86.3829 30.8961C86.2386 30.8575 86.1027 30.7879 85.975 30.6874C85.8473 30.587 85.7348 30.4298 85.6375 30.216C85.5306 29.9555 85.4461 29.6733 85.3839 29.3695C85.3348 29.0582 85.2984 28.7614 85.2747 28.4789C85.251 28.1965 85.2359 27.944 85.2292 27.7214C85.2329 27.5015 85.2407 27.349 85.2525 27.2638C85.2595 27.1552 85.2857 27.0573 85.3311 26.9701C85.3766 26.8829 85.4588 26.8442 85.5776 26.854C85.7404 26.8645 85.8819 26.9134 86.0021 27.0008C86.1222 27.0882 86.1928 27.1955 86.214 27.3226C86.2248 27.447 86.2346 27.6374 86.2432 27.8937C86.2518 28.15 86.2759 28.4104 86.3154 28.675C86.3577 28.9293 86.4121 29.1592 86.4785 29.3647C86.5552 29.573 86.6605 29.695 86.7945 29.7309C86.949 29.7723 87.15 29.7434 87.3975 29.644C87.6553 29.5475 87.9152 29.4018 88.1772 29.207C88.4392 29.0121 88.6772 28.7833 88.8912 28.5204C89.1183 28.2499 89.2705 27.9705 89.3478 27.682C89.3643 27.6201 89.394 27.5508 89.4367 27.4739C89.4794 27.397 89.531 27.328 89.5915 27.2669C89.6548 27.1955 89.7191 27.141 89.7844 27.1033C89.8628 27.058 89.9343 27.0385 89.9989 27.0448C90.1693 27.0683 90.3011 27.1533 90.3943 27.2998C90.5007 27.4387 90.5387 27.5649 90.5083 27.6782ZM95.7137 30.3981C95.2484 30.5274 94.7659 30.5969 94.2664 30.6067C93.7696 30.6061 93.2534 30.534 92.7176 30.3904C92.6416 30.7566 92.6673 31.0727 92.7948 31.3387C92.925 31.5945 93.1237 31.7802 93.3909 31.896C93.5502 31.9608 93.7164 31.9998 93.8896 32.013C94.073 32.0291 94.2451 32.0255 94.4059 32.0023C94.5798 31.9716 94.7396 31.9316 94.8853 31.8823C95.0311 31.833 95.1613 31.7796 95.2761 31.722C95.391 31.6644 95.5026 31.6391 95.6112 31.6461C95.7225 31.6428 95.8012 31.6584 95.8472 31.6928C95.9776 31.783 95.9877 31.9513 95.8775 32.1978C95.6243 32.4834 95.3114 32.7032 94.9388 32.8574C94.569 33.0012 94.1852 33.053 93.7874 33.0127C93.4411 32.9861 93.1052 32.8796 92.7798 32.693C92.4543 32.5064 92.1884 32.2419 91.982 31.8994C91.8085 31.599 91.7027 31.2725 91.6647 30.92C91.6266 30.5674 91.6377 30.217 91.6979 29.8687C91.7526 29.541 91.8598 29.244 92.0195 28.9776C92.1895 28.714 92.3962 28.4988 92.6397 28.3321C92.8859 28.1551 93.1674 28.0318 93.4842 27.9621C93.8011 27.8924 94.1477 27.8969 94.5241 27.9757C94.9754 28.0635 95.3552 28.2536 95.6633 28.546C95.9715 28.8384 96.1508 29.1791 96.2012 29.568C96.2311 29.7859 96.2062 29.9614 96.1263 30.0946C96.0568 30.2305 95.9192 30.3317 95.7137 30.3981ZM94.218 28.871C94.1094 28.864 93.9864 28.8697 93.849 28.8881C93.7219 28.9092 93.5957 28.9472 93.4706 29.002C93.3586 29.0493 93.2475 29.1134 93.1375 29.1943C93.0405 29.2677 92.9703 29.3649 92.9269 29.4858C93.102 29.5327 93.2968 29.5683 93.5111 29.5926C93.7358 29.6197 93.9515 29.6388 94.1583 29.6501C94.3782 29.6538 94.5788 29.6468 94.7602 29.6292C94.9519 29.6143 95.1141 29.586 95.2468 29.5442C95.2168 29.3263 95.094 29.1665 94.8784 29.0645C94.6758 28.955 94.4557 28.8905 94.218 28.871ZM102.124 29.8795C102.088 30.179 102.036 30.4964 101.968 30.8316C101.913 31.1593 101.847 31.4894 101.769 31.8219C101.701 32.1571 101.626 32.4792 101.543 32.7883C101.46 33.0974 101.381 33.3742 101.304 33.6188C101.573 33.9338 101.715 34.1871 101.73 34.3789C101.755 34.5733 101.724 34.7306 101.636 34.8508C101.525 35.0197 101.385 35.0872 101.218 35.0533C101.063 35.0119 100.898 34.9069 100.722 34.7384C100.551 34.8028 100.355 34.8719 100.137 34.9459C99.9209 35.0095 99.6948 35.0704 99.4584 35.1285C99.2247 35.1763 98.9938 35.2138 98.7656 35.241C98.5375 35.2683 98.3317 35.2739 98.1482 35.2578C97.8047 35.221 97.5225 35.0791 97.3016 34.8322C97.0909 34.588 96.9862 34.2784 96.9873 33.9032C96.989 33.6497 97.0384 33.4034 97.1356 33.1644C97.2355 32.9151 97.3776 32.6937 97.562 32.5001C97.7491 32.2963 97.9706 32.1292 98.2263 31.999C98.4924 31.8715 98.7835 31.7949 99.0996 31.7692C99.18 31.7576 99.2848 31.7581 99.4139 31.7706C99.5534 31.7859 99.6887 31.8166 99.8199 31.8628C99.9641 31.9015 100.101 31.9659 100.232 32.056C100.362 32.1462 100.473 32.2697 100.563 32.4264C100.61 32.2513 100.656 32.0593 100.701 31.8505C100.759 31.6341 100.812 31.4163 100.86 31.1972C100.907 30.9781 100.946 30.773 100.975 30.5821C101.017 30.3835 101.046 30.2145 101.061 30.0751C101.082 29.915 101.045 29.8057 100.95 29.7472C100.868 29.6811 100.748 29.6545 100.59 29.6674C100.321 29.6836 99.9897 29.766 99.5965 29.9146C99.2033 30.0632 98.8214 30.2315 98.4509 30.4193C98.3333 30.4872 98.2141 30.4994 98.0932 30.456C97.9826 30.4153 97.8971 30.3427 97.8368 30.2382C97.7765 30.1337 97.755 30.0285 97.7723 29.9227C97.7923 29.8066 97.8653 29.6992 97.9911 29.6004C98.216 29.4619 98.4628 29.3237 98.7316 29.1859C99.0005 29.0481 99.2741 28.9337 99.5525 28.8427C99.8336 28.7413 100.112 28.6723 100.386 28.6355C100.661 28.5987 100.924 28.6083 101.174 28.6643C101.537 28.7506 101.793 28.9075 101.942 29.1352C102.094 29.3525 102.154 29.6006 102.124 29.8795ZM99.4406 32.7219C99.2984 32.7169 99.1362 32.7453 98.9541 32.8069C98.785 32.861 98.6193 32.9436 98.457 33.0547C98.3078 33.1582 98.1788 33.2893 98.07 33.4479C97.9743 33.599 97.9302 33.7638 97.9375 33.9425C97.9415 34.0098 97.9703 34.0672 98.0239 34.1147C98.0877 34.1649 98.1636 34.1908 98.2515 34.1923C98.5126 34.207 98.817 34.1837 99.1648 34.1222C99.5256 34.0533 99.8222 33.9561 100.055 33.8306C100.071 33.7688 100.061 33.6832 100.024 33.5739C99.9898 33.4543 99.9439 33.3371 99.8863 33.2223C99.8315 33.0972 99.7622 32.9848 99.6785 32.885C99.6051 32.7881 99.5258 32.7337 99.4406 32.7219ZM108.641 32.0398C108.428 32.0932 108.203 32.1489 107.966 32.207C107.74 32.2679 107.503 32.348 107.256 32.4473C107.022 32.5391 106.784 32.6632 106.543 32.8196C106.316 32.9684 106.093 33.1626 105.874 33.4021C105.563 33.7384 105.316 34.103 105.133 34.4958C104.954 34.8783 104.801 35.2625 104.676 35.6485C104.626 35.834 104.528 36.0122 104.383 36.1831C104.251 36.3465 104.108 36.4074 103.953 36.366C103.757 36.3136 103.624 36.1729 103.553 35.944C103.495 35.7076 103.47 35.4911 103.478 35.2946C103.499 34.5162 103.548 33.7563 103.625 33.015C103.705 32.2634 103.799 31.5211 103.907 30.7881C103.946 30.6438 104.012 30.5622 104.106 30.543C104.209 30.5267 104.316 30.5388 104.427 30.5795C104.548 30.6229 104.658 30.6856 104.758 30.7675C104.857 30.8494 104.902 30.9497 104.892 31.0686C104.831 31.4608 104.775 31.8765 104.724 32.3155C104.675 32.7442 104.642 33.1162 104.624 33.4315C104.759 33.0923 104.963 32.7826 105.237 32.5026C105.511 32.2226 105.817 31.9846 106.157 31.7885C106.507 31.5951 106.877 31.4513 107.267 31.3569C107.667 31.2653 108.055 31.2369 108.432 31.2717C108.592 31.2925 108.721 31.327 108.819 31.3753C108.916 31.4235 108.979 31.4789 109.006 31.5414C109.034 31.604 109.017 31.6878 108.955 31.7928C108.904 31.9007 108.799 31.983 108.641 32.0398ZM111.69 30.8196C111.441 31.9564 111.217 33.1442 111.017 34.3828C110.821 35.6111 110.648 36.7906 110.5 37.9214C110.409 38.383 110.223 38.5817 109.942 38.5175C109.881 38.5009 109.824 38.4637 109.774 38.406C109.726 38.3379 109.685 38.2609 109.653 38.1749C109.621 38.089 109.59 37.9979 109.561 37.9017C109.542 37.8082 109.535 37.7292 109.542 37.6646C109.6 37.1171 109.672 36.54 109.757 35.9334C109.842 35.3268 109.933 34.7216 110.028 34.1177C110.137 33.5063 110.246 32.9118 110.357 32.3341C110.468 31.7563 110.581 31.2291 110.698 30.7524C110.785 30.5107 110.876 30.3143 110.972 30.1632C111.07 30.0019 111.201 29.9484 111.363 30.0029C111.535 30.0601 111.639 30.1654 111.676 30.3187C111.725 30.4644 111.73 30.6313 111.69 30.8196ZM118.089 35.0683C117.97 35.6329 117.851 36.2028 117.73 36.7777C117.619 37.3554 117.479 37.9197 117.309 38.4706C117.142 39.0111 116.942 39.5317 116.709 40.0323C116.485 40.5357 116.206 41.0019 115.87 41.4309C115.537 41.8497 115.14 42.2182 114.679 42.5364C114.229 42.8575 113.697 43.1124 113.083 43.3013C112.987 43.3308 112.886 43.3368 112.78 43.3195C112.685 43.305 112.593 43.275 112.506 43.2295C112.416 43.1944 112.341 43.1465 112.279 43.086C112.216 43.0358 112.182 42.977 112.178 42.9096C112.172 42.8086 112.215 42.7097 112.307 42.613C112.399 42.5162 112.534 42.4253 112.711 42.3403C113.256 42.1218 113.733 41.8633 114.145 41.5649C114.556 41.2665 114.914 40.9207 115.218 40.5273C115.522 40.134 115.769 39.6866 115.958 39.1853C116.161 38.6764 116.314 38.1045 116.418 37.4698C116.253 37.5912 116.066 37.7122 115.857 37.8329C115.648 37.9536 115.433 38.0561 115.211 38.1403C114.993 38.2143 114.773 38.2714 114.553 38.3116C114.335 38.3416 114.138 38.3331 113.963 38.2862C113.819 38.2476 113.683 38.178 113.555 38.0775C113.428 37.9771 113.315 37.8199 113.218 37.6061C113.111 37.3456 113.026 37.0634 112.964 36.7596C112.915 36.4483 112.879 36.1515 112.855 35.869C112.831 35.5866 112.816 35.3341 112.809 35.1114C112.813 34.8916 112.821 34.739 112.833 34.6539C112.84 34.5453 112.866 34.4474 112.911 34.3602C112.957 34.273 113.039 34.2343 113.158 34.2441C113.321 34.2546 113.462 34.3035 113.582 34.3909C113.702 34.4783 113.773 34.5856 113.794 34.7127C113.805 34.8371 113.815 35.0274 113.823 35.2837C113.832 35.54 113.856 35.8005 113.896 36.0651C113.938 36.3193 113.992 36.5492 114.059 36.7548C114.135 36.9631 114.241 37.0851 114.375 37.121C114.529 37.1624 114.73 37.1335 114.978 37.0341C115.235 36.9376 115.495 36.7919 115.757 36.5971C116.019 36.4022 116.257 36.1734 116.471 35.9105C116.698 35.64 116.851 35.3605 116.928 35.0721C116.945 35.0102 116.974 34.9409 117.017 34.864C117.06 34.7871 117.111 34.7181 117.172 34.657C117.235 34.5856 117.299 34.5311 117.365 34.4934C117.443 34.4481 117.515 34.4286 117.579 34.4349C117.749 34.4584 117.881 34.5434 117.975 34.6899C118.081 34.8288 118.119 34.955 118.089 35.0683Z" fill="#1F70EA"/>
<path d="M55.633 38.9563C44.9996 61.5723 23.9996 41.0724 12.4926 51.4228" stroke="#1F70EA" stroke-width="2" stroke-linecap="round"/>
<path d="M18.3459 58.9239C14.5237 57.5289 9.95083 55.6418 3.15129 55.5147C5.54239 52.8264 10.4726 46.6142 11.0645 43.2721" stroke="#1F70EA" stroke-width="2" stroke-linecap="round" stroke-linejoin="round"/>
</svg>
