<svg width="24" height="24" viewBox="0 0 24 24" fill="none" xmlns="http://www.w3.org/2000/svg">
<path d="M0 8C0 3.58172 3.58172 0 8 0H16C20.4183 0 24 3.58172 24 8V16C24 20.4183 20.4183 24 16 24H8C3.58172 24 0 20.4183 0 16V8Z" fill="#E30613"/>
<path fill-rule="evenodd" clip-rule="evenodd" d="M18.0303 7.96993C18.3232 8.26283 18.3232 8.7377 18.0303 9.03059L11.0303 16.0303C10.7374 16.3231 10.2626 16.3232 9.96969 16.0303L6.46969 12.5306C6.17679 12.2377 6.17677 11.7628 6.46965 11.4699C6.76253 11.177 7.2374 11.177 7.53031 11.4699L10.5 14.4393L16.9697 7.9699C17.2626 7.67702 17.7375 7.67703 18.0303 7.96993Z" fill="#FAEDED"/>
<path d="M8 1H16V-1H8V1ZM23 8V16H25V8H23ZM16 23H8V25H16V23ZM1 16V8H-1V16H1ZM8 23C4.13401 23 1 19.866 1 16H-1C-1 20.9706 3.02944 25 8 25V23ZM23 16C23 19.866 19.866 23 16 23V25C20.9706 25 25 20.9706 25 16H23ZM16 1C19.866 1 23 4.13401 23 8H25C25 3.02944 20.9706 -1 16 -1V1ZM8 -1C3.02944 -1 -1 3.02944 -1 8H1C1 4.13401 4.13401 1 8 1V-1Z" fill="#E62020"/>
</svg>
