<svg width="16" height="17" viewBox="0 0 16 17" fill="none" xmlns="http://www.w3.org/2000/svg">
<path d="M14.2735 8.02558L8.2735 2.02558C8.0335 1.78558 7.70016 1.63892 7.3335 1.63892H2.66683C1.9335 1.63892 1.3335 2.23892 1.3335 2.97225V7.63892C1.3335 8.00558 1.48016 8.33892 1.72683 8.58558L7.72683 14.5856C7.96683 14.8256 8.30016 14.9722 8.66683 14.9722C9.0335 14.9722 9.36683 14.8256 9.60683 14.5789L14.2735 9.91225C14.5202 9.67225 14.6668 9.33892 14.6668 8.97225C14.6668 8.60558 14.5135 8.26558 14.2735 8.02558ZM8.66683 13.6456L2.66683 7.63892V2.97225H7.3335V2.96558L13.3335 8.96558L8.66683 13.6456Z" fill="#8C8C8C"/>
<path d="M4.3335 5.63892C4.88578 5.63892 5.3335 5.1912 5.3335 4.63892C5.3335 4.08663 4.88578 3.63892 4.3335 3.63892C3.78121 3.63892 3.3335 4.08663 3.3335 4.63892C3.3335 5.1912 3.78121 5.63892 4.3335 5.63892Z" fill="#8C8C8C"/>
</svg>
