<svg width="18" height="18" viewBox="0 0 18 18" fill="none" xmlns="http://www.w3.org/2000/svg">
<path d="M5.17441 6.45C5.17441 6.03578 4.83863 5.7 4.42441 5.7C4.0102 5.7 3.67441 6.03578 3.67441 6.45H5.17441ZM13.5744 6.45C13.5744 6.03578 13.2386 5.7 12.8244 5.7C12.4102 5.7 12.0744 6.03578 12.0744 6.45H13.5744ZM10.775 7.14999C10.775 6.73578 10.4392 6.39999 10.025 6.39999C9.61079 6.39999 9.275 6.73578 9.275 7.14999H10.775ZM9.275 12.05C9.275 12.4642 9.61079 12.8 10.025 12.8C10.4392 12.8 10.775 12.4642 10.775 12.05H9.275ZM7.9748 7.14999C7.9748 6.73578 7.63902 6.39999 7.2248 6.39999C6.81059 6.39999 6.4748 6.73578 6.4748 7.14999H7.9748ZM6.4748 12.05C6.4748 12.4642 6.81059 12.8 7.2248 12.8C7.63902 12.8 7.9748 12.4642 7.9748 12.05H6.4748ZM3.375 3.6C2.96079 3.6 2.625 3.93578 2.625 4.35C2.625 4.76421 2.96079 5.1 3.375 5.1V3.6ZM13.875 5.1C14.2892 5.1 14.625 4.76421 14.625 4.35C14.625 3.93578 14.2892 3.6 13.875 3.6V5.1ZM5.11212 4.11283C4.98113 4.50579 5.1935 4.93053 5.58646 5.06151C5.97942 5.1925 6.40416 4.98013 6.53515 4.58717L5.11212 4.11283ZM6.20443 3.2076L6.91595 3.44477L6.916 3.4446L6.20443 3.2076ZM7.53303 2.25L7.53285 3H7.53303V2.25ZM9.71423 2.25V3L9.71516 3L9.71423 2.25ZM11.0442 3.2076L11.756 2.97122L11.7558 2.9706L11.0442 3.2076ZM10.7119 4.58639C10.8424 4.97949 11.2669 5.19233 11.66 5.06177C12.0531 4.93122 12.266 4.50672 12.1354 4.11362L10.7119 4.58639ZM3.67441 6.45V13.45H5.17441V6.45H3.67441ZM3.67441 13.45C3.67441 14.6374 4.637 15.6 5.82441 15.6V14.1C5.46543 14.1 5.17441 13.809 5.17441 13.45H3.67441ZM5.82441 15.6H11.4244V14.1H5.82441V15.6ZM11.4244 15.6C12.6118 15.6 13.5744 14.6374 13.5744 13.45H12.0744C12.0744 13.809 11.7834 14.1 11.4244 14.1V15.6ZM13.5744 13.45V6.45H12.0744V13.45H13.5744ZM9.275 7.14999V12.05H10.775V7.14999H9.275ZM6.4748 7.14999V12.05H7.9748V7.14999H6.4748ZM3.375 5.1H13.875V3.6H3.375V5.1ZM6.53515 4.58717L6.91595 3.44477L5.49292 2.97043L5.11212 4.11283L6.53515 4.58717ZM6.916 3.4446C7.00445 3.17905 7.25296 2.99993 7.53285 3L7.53321 1.5C6.60741 1.49978 5.78542 2.09224 5.49286 2.9706L6.916 3.4446ZM7.53303 3H9.71423V1.5H7.53303V3ZM9.71516 3C9.9953 2.99965 10.2441 3.17882 10.3327 3.4446L11.7558 2.9706C11.463 2.09148 10.6399 1.49885 9.7133 1.5L9.71516 3ZM10.3325 3.44399L10.7119 4.58639L12.1354 4.11362L11.756 2.97122L10.3325 3.44399Z" fill="#505053"/>
</svg>
