<svg width="20" height="20" viewBox="0 0 20 20" fill="none" xmlns="http://www.w3.org/2000/svg">
<path d="M8.83171 3.36996C9.18671 1.90663 11.2684 1.90663 11.6234 3.36996C11.6766 3.58979 11.7811 3.79394 11.9281 3.96579C12.0752 4.13764 12.2608 4.27234 12.4697 4.35892C12.6787 4.44549 12.9052 4.4815 13.1307 4.46402C13.3562 4.44653 13.5744 4.37605 13.7675 4.25829C15.0534 3.47496 16.5259 4.94663 15.7425 6.23329C15.625 6.42634 15.5546 6.64441 15.5371 6.86977C15.5197 7.09514 15.5557 7.32144 15.6421 7.53028C15.7286 7.73912 15.8632 7.92461 16.0348 8.07167C16.2065 8.21873 16.4104 8.32322 16.63 8.37663C18.0934 8.73163 18.0934 10.8133 16.63 11.1683C16.4102 11.2216 16.2061 11.326 16.0342 11.4731C15.8624 11.6201 15.7277 11.8057 15.6411 12.0147C15.5545 12.2236 15.5185 12.4501 15.536 12.6756C15.5535 12.9011 15.624 13.1193 15.7417 13.3125C16.525 14.5983 15.0534 16.0708 13.7667 15.2875C13.5737 15.1699 13.3556 15.0995 13.1302 15.0821C12.9049 15.0646 12.6786 15.1006 12.4697 15.1871C12.2609 15.2735 12.0754 15.4081 11.9283 15.5797C11.7813 15.7514 11.6768 15.9553 11.6234 16.175C11.2684 17.6383 9.18671 17.6383 8.83171 16.175C8.77844 15.9551 8.67402 15.751 8.52695 15.5791C8.37987 15.4073 8.1943 15.2726 7.98533 15.186C7.77636 15.0994 7.5499 15.0634 7.32438 15.0809C7.09887 15.0984 6.88067 15.1689 6.68754 15.2866C5.40171 16.07 3.92921 14.5983 4.71254 13.3116C4.83012 13.1186 4.9005 12.9005 4.91794 12.6751C4.93539 12.4498 4.89941 12.2235 4.81293 12.0146C4.72646 11.8058 4.59192 11.6203 4.42027 11.4733C4.24861 11.3262 4.04468 11.2217 3.82504 11.1683C2.36171 10.8133 2.36171 8.73163 3.82504 8.37663C4.04487 8.32336 4.24902 8.21894 4.42087 8.07187C4.59272 7.92479 4.72742 7.73922 4.81399 7.53025C4.90057 7.32128 4.93658 7.09482 4.9191 6.86931C4.90161 6.64379 4.83112 6.42559 4.71337 6.23246C3.93004 4.94663 5.40171 3.47413 6.68837 4.25746C7.52171 4.76413 8.60171 4.31579 8.83171 3.36996Z" stroke="#505053" stroke-width="1.5" stroke-linecap="round" stroke-linejoin="round"/>
<path d="M8.33301 7.5V12.5L12.4997 10L8.33301 7.5Z" stroke="#505053" stroke-linecap="round" stroke-linejoin="round"/>
</svg>
