<svg width="16" height="17" viewBox="0 0 16 17" fill="none" xmlns="http://www.w3.org/2000/svg">
<path d="M8.66667 10.5H3.33333C2.59667 10.5 2 9.90333 2 9.16667V3.83333C2 3.09667 2.59667 2.5 3.33333 2.5H10.6667C11.4033 2.5 12 3.09667 12 3.83333V6.5" stroke="#8C8C8C" stroke-width="1.5" stroke-linecap="round" stroke-linejoin="round"/>
<path d="M7.66666 11.5L8.66666 10.5L7.66666 9.5" stroke="#8C8C8C" stroke-width="1.5" stroke-linecap="round" stroke-linejoin="round"/>
<path d="M4.66666 8.5V7.83333C4.66666 7.09667 5.26332 6.5 5.99999 6.5H12H12.6667C13.4033 6.5 14 7.09667 14 7.83333V13.1667C14 13.9033 13.4033 14.5 12.6667 14.5H5.99999C5.26332 14.5 4.66666 13.9033 4.66666 13.1667V13.1667V12.5" stroke="#8C8C8C" stroke-width="1.5" stroke-linecap="round" stroke-linejoin="round"/>
</svg>
