<svg width="24" height="24" viewBox="0 0 24 24" fill="none" xmlns="http://www.w3.org/2000/svg">
<path d="M6.7477 8.9986C6.7477 8.58438 6.41191 8.2486 5.9977 8.2486C5.58348 8.2486 5.2477 8.58438 5.2477 8.9986H6.7477ZM18.7527 8.9986C18.7527 8.58438 18.4169 8.2486 18.0027 8.2486C17.5885 8.2486 17.2527 8.58438 17.2527 8.9986H18.7527ZM14.751 9.99901C14.751 9.5848 14.4152 9.24901 14.001 9.24901C13.5868 9.24901 13.251 9.5848 13.251 9.99901H14.751ZM13.251 17.0019C13.251 17.4161 13.5868 17.7519 14.001 17.7519C14.4152 17.7519 14.751 17.4161 14.751 17.0019H13.251ZM10.7494 9.99901C10.7494 9.5848 10.4136 9.24901 9.99936 9.24901C9.58515 9.24901 9.24936 9.5848 9.24936 9.99901H10.7494ZM9.24936 17.0019C9.24936 17.4161 9.58515 17.7519 9.99936 17.7519C10.4136 17.7519 10.7494 17.4161 10.7494 17.0019H9.24936ZM4.49707 5.24735C4.08286 5.24735 3.74707 5.58313 3.74707 5.99735C3.74707 6.41156 4.08286 6.74735 4.49707 6.74735V5.24735ZM19.5033 6.74735C19.9175 6.74735 20.2533 6.41156 20.2533 5.99735C20.2533 5.58313 19.9175 5.24735 19.5033 5.24735V6.74735ZM7.28702 5.76017C7.15603 6.15313 7.3684 6.57787 7.76136 6.70886C8.15432 6.83984 8.57906 6.62747 8.71004 6.23452L7.28702 5.76017ZM8.54276 4.36467L9.25427 4.60184L9.25432 4.60167L8.54276 4.36467ZM10.4415 2.9961L10.4414 3.7461H10.4415V2.9961ZM13.5588 2.9961V3.7461L13.5598 3.74609L13.5588 2.9961ZM15.4596 4.36467L16.1714 4.12828L16.1712 4.12767L15.4596 4.36467ZM15.2901 6.23373C15.4206 6.62683 15.8451 6.83967 16.2382 6.70912C16.6313 6.57857 16.8442 6.15406 16.7136 5.76096L15.2901 6.23373ZM5.2477 8.9986V19.0028H6.7477V8.9986H5.2477ZM5.2477 19.0028C5.2477 20.522 6.47929 21.7536 7.99853 21.7536V20.2536C7.30771 20.2536 6.7477 19.6936 6.7477 19.0028H5.2477ZM7.99853 21.7536H16.0019V20.2536H7.99853V21.7536ZM16.0019 21.7536C17.5211 21.7536 18.7527 20.522 18.7527 19.0028H17.2527C17.2527 19.6936 16.6927 20.2536 16.0019 20.2536V21.7536ZM18.7527 19.0028V8.9986H17.2527V19.0028H18.7527ZM13.251 9.99901V17.0019H14.751V9.99901H13.251ZM9.24936 9.99901V17.0019H10.7494V9.99901H9.24936ZM4.49707 6.74735H19.5033V5.24735H4.49707V6.74735ZM8.71004 6.23452L9.25427 4.60184L7.83124 4.1275L7.28702 5.76017L8.71004 6.23452ZM9.25432 4.60167C9.42453 4.09065 9.90275 3.74597 10.4414 3.7461L10.4417 2.2461C9.2572 2.24581 8.2055 3.00383 7.83119 4.12767L9.25432 4.60167ZM10.4415 3.7461H13.5588V2.2461H10.4415V3.7461ZM13.5598 3.74609C14.0989 3.74543 14.5777 4.09021 14.7481 4.60167L16.1712 4.12767C15.7966 3.00287 14.7435 2.24463 13.5579 2.2461L13.5598 3.74609ZM14.7479 4.60105L15.2901 6.23373L16.7136 5.76096L16.1714 4.12828L14.7479 4.60105Z" fill="#1D1D1D"/>
</svg>
