<svg width="16" height="15" viewBox="0 0 16 15" fill="none" xmlns="http://www.w3.org/2000/svg">
<path d="M11.1726 4.25H13.1226C13.0776 3.8975 12.8526 3.545 12.5301 3.3725L6.87507 0.5L1.10007 3.3725C0.740065 3.5675 0.500065 3.98 0.500065 4.3775V10.25C0.500065 11.075 1.17507 11.75 2.00007 11.75V4.55L6.87507 2L11.1726 4.25Z" fill="#505053"/>
<path d="M14.0001 5H4.25007C3.42507 5 2.75007 5.675 2.75007 6.5V13.25C2.75007 14.075 3.42507 14.75 4.25007 14.75H14.0001C14.8251 14.75 15.5001 14.075 15.5001 13.25V6.5C15.5001 5.675 14.8251 5 14.0001 5ZM14.0001 13.25H4.25007V8L9.12507 10.4975L14.0001 8V13.25ZM9.12507 8.9975L4.25007 6.5H14.0001L9.12507 8.9975Z" fill="#505053"/>
</svg>
