<svg width="18" height="18" viewBox="0 0 18 18" fill="none" xmlns="http://www.w3.org/2000/svg">
<path d="M12.1725 5.25H14.1225C14.0775 4.8975 13.8525 4.545 13.53 4.3725L7.875 1.5L2.1 4.3725C1.74 4.5675 1.5 4.98 1.5 5.3775V11.25C1.5 12.075 2.175 12.75 3 12.75V5.55L7.875 3L12.1725 5.25Z" fill="#505053"/>
<path d="M15 6H5.25C4.425 6 3.75 6.675 3.75 7.5V14.25C3.75 15.075 4.425 15.75 5.25 15.75H15C15.825 15.75 16.5 15.075 16.5 14.25V7.5C16.5 6.675 15.825 6 15 6ZM15 14.25H5.25V9L10.125 11.4975L15 9V14.25ZM10.125 9.9975L5.25 7.5H15L10.125 9.9975Z" fill="#505053"/>
</svg>
