<svg width="16" height="16" viewBox="0 0 16 16" fill="none" xmlns="http://www.w3.org/2000/svg">
<path d="M8.66667 10H3.33333C2.59667 10 2 9.40333 2 8.66667V3.33333C2 2.59667 2.59667 2 3.33333 2H10.6667C11.4033 2 12 2.59667 12 3.33333V6" stroke="#8C8C8C" stroke-width="1.5" stroke-linecap="round" stroke-linejoin="round"/>
<path d="M7.6665 11L8.6665 10L7.6665 9" stroke="#8C8C8C" stroke-width="1.5" stroke-linecap="round" stroke-linejoin="round"/>
<path d="M4.6665 8V7.33333C4.6665 6.59667 5.26317 6 5.99984 6H11.9998H12.6665C13.4032 6 13.9998 6.59667 13.9998 7.33333V12.6667C13.9998 13.4033 13.4032 14 12.6665 14H5.99984C5.26317 14 4.6665 13.4033 4.6665 12.6667V12.6667V12" stroke="#8C8C8C" stroke-width="1.5" stroke-linecap="round" stroke-linejoin="round"/>
</svg>
